<svg width="25" height="25" viewBox="0 0 25 25" fill="none" xmlns="http://www.w3.org/2000/svg">
<path d="M12.4855 12.8554C9.54275 12.8554 7.09692 10.4116 7.09692 7.51995C7.09692 4.52829 9.54275 2.0835 12.4865 2.0835C15.5302 2.0835 17.875 4.52725 17.875 7.51995C17.8727 8.22307 17.7319 8.91885 17.4607 9.56756C17.1895 10.2163 16.7932 10.8052 16.2943 11.3007C15.7955 11.7963 15.204 12.1887 14.5535 12.4556C13.903 12.7226 13.2063 12.8587 12.5032 12.8564L12.4855 12.8554ZM12.4855 5.2262C11.2396 5.2262 10.2917 6.27308 10.2917 7.521C10.2917 8.76683 11.2396 9.71475 12.4865 9.71475C13.7834 9.71475 14.6813 8.76683 14.6813 7.521C14.6823 6.27204 13.7834 5.2262 12.4855 5.2262ZM14.6313 17.295L17.6761 20.2377C18.275 20.8845 18.275 21.8325 17.6761 22.4314C17.0282 23.0783 16.0292 23.0783 15.5302 22.4314L12.4865 19.4387L9.54275 22.4314C9.24379 22.7304 8.84379 22.8793 8.39379 22.8793C8.04483 22.8793 7.64587 22.7293 7.29587 22.4314C6.69692 21.8325 6.69692 20.8845 7.29587 20.2366L10.3896 17.2939C9.2724 16.963 8.20065 16.4944 7.199 15.8991C6.45004 15.5002 6.30108 14.5033 6.70004 13.7543C7.199 13.0064 8.09692 12.8075 8.89587 13.3064C9.97775 13.9666 11.2206 14.3159 12.4881 14.3159C13.7555 14.3159 14.9984 13.9666 16.0802 13.3064C16.8792 12.8075 17.8261 13.0064 18.275 13.7543C18.725 14.5033 18.524 15.4991 17.825 15.8991C16.8782 16.4981 15.7802 16.947 14.6323 17.296L14.6313 17.295Z" fill="black"/>
</svg>
