<svg width="30" height="29" viewBox="0 0 30 29" fill="none" xmlns="http://www.w3.org/2000/svg">
<path d="M28.8144 18.5731L20.8062 15.6951L17.4588 11.4924C17.1677 11.1366 16.8011 10.85 16.3855 10.6535C15.9698 10.457 15.5157 10.3555 15.0559 10.3564H6.77436C6.26789 10.3564 5.76911 10.4802 5.32143 10.717C4.87375 10.9538 4.49076 11.2965 4.20579 11.7151L1.39693 15.84C0.81261 16.6989 0.5001 17.7135 0.5 18.7523V24.8553C0.5 25.1299 0.60912 25.3933 0.803354 25.5876C0.997588 25.7818 1.26103 25.8909 1.53571 25.8909H3.75421C3.97952 26.7797 4.49478 27.568 5.21848 28.1312C5.94218 28.6943 6.833 29 7.75 29C8.667 29 9.55782 28.6943 10.2815 28.1312C11.0052 27.568 11.5205 26.7797 11.7458 25.8909H18.2542C18.4795 26.7797 18.9948 27.568 19.7185 28.1312C20.4422 28.6943 21.333 29 22.25 29C23.167 29 24.0578 28.6943 24.7815 28.1312C25.5052 27.568 26.0205 26.7797 26.2458 25.8909H28.4643C28.739 25.8909 29.0024 25.7818 29.1966 25.5876C29.3909 25.3933 29.5 25.1299 29.5 24.8553V19.5476C29.5 19.3344 29.4341 19.1263 29.3114 18.9519C29.1887 18.7775 29.0151 18.6452 28.8144 18.5731ZM7.75 26.9265C7.34031 26.9265 6.93982 26.8051 6.59918 26.5775C6.25853 26.3499 5.99303 26.0264 5.83625 25.6479C5.67947 25.2694 5.63845 24.853 5.71837 24.4512C5.7983 24.0494 5.99558 23.6803 6.28528 23.3906C6.57497 23.101 6.94407 22.9037 7.34588 22.8238C7.7477 22.7439 8.1642 22.7849 8.5427 22.9417C8.9212 23.0984 9.24472 23.3639 9.47233 23.7045C9.69994 24.0451 9.82143 24.4456 9.82143 24.8553C9.82061 25.4043 9.6021 25.9307 9.21381 26.319C8.82552 26.7072 8.29912 26.9257 7.75 26.9265ZM22.25 26.9265C21.8403 26.9265 21.4398 26.8051 21.0992 26.5775C20.7585 26.3499 20.493 26.0264 20.3362 25.6479C20.1795 25.2694 20.1384 24.853 20.2184 24.4512C20.2983 24.0494 20.4956 23.6803 20.7853 23.3906C21.075 23.101 21.4441 22.9037 21.8459 22.8238C22.2477 22.7439 22.6642 22.7849 23.0427 22.9417C23.4212 23.0984 23.7447 23.3639 23.9723 23.7045C24.1999 24.0451 24.3214 24.4456 24.3214 24.8553C24.3206 25.4043 24.1021 25.9307 23.7138 26.319C23.3255 26.7072 22.7991 26.9257 22.25 26.9265ZM27.4286 23.8196H26.2458C26.0205 22.9308 25.5052 22.1425 24.7815 21.5794C24.0578 21.0163 23.167 20.7105 22.25 20.7105C21.333 20.7105 20.4422 21.0163 19.7185 21.5794C18.9948 22.1425 18.4795 22.9308 18.2542 23.8196H11.7458C11.5205 22.9308 11.0052 22.1425 10.2815 21.5794C9.55782 21.0163 8.667 20.7105 7.75 20.7105C6.833 20.7105 5.94218 21.0163 5.21848 21.5794C4.49478 22.1425 3.97952 22.9308 3.75421 23.8196H2.57143V18.7523C2.57144 18.1287 2.7591 17.5196 3.11 17.0041L5.91782 12.8812C6.01277 12.7415 6.14045 12.6271 6.28975 12.5481C6.43904 12.469 6.60542 12.4277 6.77436 12.4276H15.0559C15.2066 12.4277 15.3555 12.4606 15.4922 12.5241C15.6288 12.5876 15.75 12.6801 15.8472 12.7953L19.3686 17.2154C19.4884 17.3657 19.6476 17.4797 19.8285 17.5447L27.4286 20.2757V23.8196ZM27.4286 0H23.2857C22.7363 0 22.2095 0.218223 21.821 0.606661C21.4325 0.9951 21.2143 1.52194 21.2143 2.07127V10.3564C21.2143 10.9057 21.4325 11.4325 21.821 11.821C22.2095 12.2094 22.7363 12.4276 23.2857 12.4276H27.4286C27.9779 12.4276 28.5048 12.2094 28.8933 11.821C29.2818 11.4325 29.5 10.9057 29.5 10.3564V2.07127C29.5 1.52194 29.2818 0.9951 28.8933 0.606661C28.5048 0.218223 27.9779 0 27.4286 0ZM27.4286 2.07127V4.14254H23.2857V2.07127H27.4286ZM23.2857 10.3564V6.21381H27.4286V10.3564H23.2857Z" fill="#66BAF1"/>
</svg>
