<svg width="28" height="25" viewBox="0 0 28 25" fill="none" xmlns="http://www.w3.org/2000/svg">
<path d="M26.4931 5.72136C26.6729 5.11373 26.4931 4.6665 25.6278 4.6665H22.7646C22.0354 4.6665 21.7 5.05053 21.5201 5.47831C21.5201 5.47831 20.0618 9.03178 18.0007 11.3359C17.3347 12.0019 17.0285 12.2158 16.6639 12.2158C16.484 12.2158 16.207 12.0019 16.207 11.3943V5.72136C16.207 4.9922 16.0028 4.6665 15.4 4.6665H10.8986C10.4417 4.6665 10.1695 5.00678 10.1695 5.32275C10.1695 6.01303 11.2 6.17345 11.307 8.11789V12.3373C11.307 13.2609 11.1417 13.4311 10.7771 13.4311C9.80487 13.4311 7.44237 9.86303 6.04237 5.7797C5.76043 4.98734 5.48334 4.6665 4.74931 4.6665H1.88612C1.06945 4.6665 0.904175 5.05053 0.904175 5.47831C0.904175 6.23664 1.8764 10.004 5.42987 14.9818C7.79723 18.3797 11.132 20.2221 14.1653 20.2221C15.9882 20.2221 16.2118 19.8137 16.2118 19.1089C16.2118 15.8616 16.0465 15.5554 16.9604 15.5554C17.3833 15.5554 18.1125 15.7693 19.8139 17.4075C21.7583 19.3519 22.0792 20.2221 23.1681 20.2221H26.0313C26.8479 20.2221 27.2611 19.8137 27.0229 19.0068C26.4785 17.3103 22.7986 13.82 22.6333 13.5866C22.2104 13.0422 22.332 12.7991 22.6333 12.313C22.6382 12.3082 26.1333 7.38873 26.4931 5.72136Z" fill="black"/>
</svg>
