<svg width="100" height="100" viewBox="0 0 100 100" fill="none" xmlns="http://www.w3.org/2000/svg">
<g clip-path="url(#clip0_1108_815)">
<path d="M2.17391 4.34783C3.37453 4.34783 4.34783 3.37453 4.34783 2.17391C4.34783 0.973296 3.37453 0 2.17391 0C0.973296 0 0 0.973296 0 2.17391C0 3.37453 0.973296 4.34783 2.17391 4.34783Z" fill="#727577"/>
<path d="M10.8696 4.34783C12.0702 4.34783 13.0435 3.37453 13.0435 2.17391C13.0435 0.973296 12.0702 0 10.8696 0C9.66895 0 8.69565 0.973296 8.69565 2.17391C8.69565 3.37453 9.66895 4.34783 10.8696 4.34783Z" fill="#727577"/>
<path d="M19.5652 4.34783C20.7658 4.34783 21.7391 3.37453 21.7391 2.17391C21.7391 0.973296 20.7658 0 19.5652 0C18.3646 0 17.3913 0.973296 17.3913 2.17391C17.3913 3.37453 18.3646 4.34783 19.5652 4.34783Z" fill="#727577"/>
<path d="M28.2609 4.34783C29.4615 4.34783 30.4348 3.37453 30.4348 2.17391C30.4348 0.973296 29.4615 0 28.2609 0C27.0603 0 26.087 0.973296 26.087 2.17391C26.087 3.37453 27.0603 4.34783 28.2609 4.34783Z" fill="#727577"/>
<path d="M36.9565 4.34783C38.1571 4.34783 39.1304 3.37453 39.1304 2.17391C39.1304 0.973296 38.1571 0 36.9565 0C35.7559 0 34.7826 0.973296 34.7826 2.17391C34.7826 3.37453 35.7559 4.34783 36.9565 4.34783Z" fill="#727577"/>
<path d="M45.6522 4.34783C46.8526 4.34783 47.8261 3.37453 47.8261 2.17391C47.8261 0.973296 46.8526 0 45.6522 0C44.4517 0 43.4783 0.973296 43.4783 2.17391C43.4783 3.37453 44.4517 4.34783 45.6522 4.34783Z" fill="#727577"/>
<path d="M54.3478 4.34783C55.5483 4.34783 56.5217 3.37453 56.5217 2.17391C56.5217 0.973296 55.5483 0 54.3478 0C53.1474 0 52.1739 0.973296 52.1739 2.17391C52.1739 3.37453 53.1474 4.34783 54.3478 4.34783Z" fill="#727577"/>
<path d="M63.0435 4.34783C64.2439 4.34783 65.2174 3.37453 65.2174 2.17391C65.2174 0.973296 64.2439 0 63.0435 0C61.843 0 60.8696 0.973296 60.8696 2.17391C60.8696 3.37453 61.843 4.34783 63.0435 4.34783Z" fill="#727577"/>
<path d="M71.7391 4.34783C72.9396 4.34783 73.913 3.37453 73.913 2.17391C73.913 0.973296 72.9396 0 71.7391 0C70.5387 0 69.5652 0.973296 69.5652 2.17391C69.5652 3.37453 70.5387 4.34783 71.7391 4.34783Z" fill="#727577"/>
<path d="M80.4348 4.34783C81.6352 4.34783 82.6087 3.37453 82.6087 2.17391C82.6087 0.973296 81.6352 0 80.4348 0C79.2343 0 78.2609 0.973296 78.2609 2.17391C78.2609 3.37453 79.2343 4.34783 80.4348 4.34783Z" fill="#727577"/>
<path d="M89.1304 4.34783C90.3309 4.34783 91.3043 3.37453 91.3043 2.17391C91.3043 0.973296 90.3309 0 89.1304 0C87.93 0 86.9565 0.973296 86.9565 2.17391C86.9565 3.37453 87.93 4.34783 89.1304 4.34783Z" fill="#727577"/>
<path d="M97.8261 4.34783C99.0265 4.34783 100 3.37453 100 2.17391C100 0.973296 99.0265 0 97.8261 0C96.6257 0 95.6522 0.973296 95.6522 2.17391C95.6522 3.37453 96.6257 4.34783 97.8261 4.34783Z" fill="#727577"/>
<path d="M2.17391 13.0435C3.37453 13.0435 4.34783 12.0702 4.34783 10.8696C4.34783 9.66898 3.37453 8.69568 2.17391 8.69568C0.973296 8.69568 0 9.66898 0 10.8696C0 12.0702 0.973296 13.0435 2.17391 13.0435Z" fill="#727577"/>
<path d="M10.8696 13.0435C12.0702 13.0435 13.0435 12.0702 13.0435 10.8696C13.0435 9.66898 12.0702 8.69568 10.8696 8.69568C9.66895 8.69568 8.69565 9.66898 8.69565 10.8696C8.69565 12.0702 9.66895 13.0435 10.8696 13.0435Z" fill="#727577"/>
<path d="M19.5652 13.0435C20.7658 13.0435 21.7391 12.0702 21.7391 10.8696C21.7391 9.66898 20.7658 8.69568 19.5652 8.69568C18.3646 8.69568 17.3913 9.66898 17.3913 10.8696C17.3913 12.0702 18.3646 13.0435 19.5652 13.0435Z" fill="#727577"/>
<path d="M28.2609 13.0435C29.4615 13.0435 30.4348 12.0702 30.4348 10.8696C30.4348 9.66898 29.4615 8.69568 28.2609 8.69568C27.0603 8.69568 26.087 9.66898 26.087 10.8696C26.087 12.0702 27.0603 13.0435 28.2609 13.0435Z" fill="#727577"/>
<path d="M36.9565 13.0435C38.1571 13.0435 39.1304 12.0702 39.1304 10.8696C39.1304 9.66898 38.1571 8.69568 36.9565 8.69568C35.7559 8.69568 34.7826 9.66898 34.7826 10.8696C34.7826 12.0702 35.7559 13.0435 36.9565 13.0435Z" fill="#727577"/>
<path d="M45.6522 13.0435C46.8526 13.0435 47.8261 12.0702 47.8261 10.8696C47.8261 9.66898 46.8526 8.69568 45.6522 8.69568C44.4517 8.69568 43.4783 9.66898 43.4783 10.8696C43.4783 12.0702 44.4517 13.0435 45.6522 13.0435Z" fill="#727577"/>
<path d="M54.3478 13.0435C55.5483 13.0435 56.5217 12.0702 56.5217 10.8696C56.5217 9.66898 55.5483 8.69568 54.3478 8.69568C53.1474 8.69568 52.1739 9.66898 52.1739 10.8696C52.1739 12.0702 53.1474 13.0435 54.3478 13.0435Z" fill="#727577"/>
<path d="M63.0435 13.0435C64.2439 13.0435 65.2174 12.0702 65.2174 10.8696C65.2174 9.66898 64.2439 8.69568 63.0435 8.69568C61.843 8.69568 60.8696 9.66898 60.8696 10.8696C60.8696 12.0702 61.843 13.0435 63.0435 13.0435Z" fill="#727577"/>
<path d="M71.7391 13.0435C72.9396 13.0435 73.913 12.0702 73.913 10.8696C73.913 9.66898 72.9396 8.69568 71.7391 8.69568C70.5387 8.69568 69.5652 9.66898 69.5652 10.8696C69.5652 12.0702 70.5387 13.0435 71.7391 13.0435Z" fill="#727577"/>
<path d="M80.4348 13.0435C81.6352 13.0435 82.6087 12.0702 82.6087 10.8696C82.6087 9.66898 81.6352 8.69568 80.4348 8.69568C79.2343 8.69568 78.2609 9.66898 78.2609 10.8696C78.2609 12.0702 79.2343 13.0435 80.4348 13.0435Z" fill="#727577"/>
<path d="M89.1304 13.0435C90.3309 13.0435 91.3043 12.0702 91.3043 10.8696C91.3043 9.66898 90.3309 8.69568 89.1304 8.69568C87.93 8.69568 86.9565 9.66898 86.9565 10.8696C86.9565 12.0702 87.93 13.0435 89.1304 13.0435Z" fill="#727577"/>
<path d="M97.8261 13.0435C99.0265 13.0435 100 12.0702 100 10.8696C100 9.66898 99.0265 8.69568 97.8261 8.69568C96.6257 8.69568 95.6522 9.66898 95.6522 10.8696C95.6522 12.0702 96.6257 13.0435 97.8261 13.0435Z" fill="#727577"/>
<path d="M2.17391 21.7391C3.37453 21.7391 4.34783 20.7658 4.34783 19.5652C4.34783 18.3646 3.37453 17.3913 2.17391 17.3913C0.973296 17.3913 0 18.3646 0 19.5652C0 20.7658 0.973296 21.7391 2.17391 21.7391Z" fill="#727577"/>
<path d="M10.8696 21.7391C12.0702 21.7391 13.0435 20.7658 13.0435 19.5652C13.0435 18.3646 12.0702 17.3913 10.8696 17.3913C9.66895 17.3913 8.69565 18.3646 8.69565 19.5652C8.69565 20.7658 9.66895 21.7391 10.8696 21.7391Z" fill="#727577"/>
<path d="M19.5652 21.7391C20.7658 21.7391 21.7391 20.7658 21.7391 19.5652C21.7391 18.3646 20.7658 17.3913 19.5652 17.3913C18.3646 17.3913 17.3913 18.3646 17.3913 19.5652C17.3913 20.7658 18.3646 21.7391 19.5652 21.7391Z" fill="#727577"/>
<path d="M28.2609 21.7391C29.4615 21.7391 30.4348 20.7658 30.4348 19.5652C30.4348 18.3646 29.4615 17.3913 28.2609 17.3913C27.0603 17.3913 26.087 18.3646 26.087 19.5652C26.087 20.7658 27.0603 21.7391 28.2609 21.7391Z" fill="#727577"/>
<path d="M36.9565 21.7391C38.1571 21.7391 39.1304 20.7658 39.1304 19.5652C39.1304 18.3646 38.1571 17.3913 36.9565 17.3913C35.7559 17.3913 34.7826 18.3646 34.7826 19.5652C34.7826 20.7658 35.7559 21.7391 36.9565 21.7391Z" fill="#727577"/>
<path d="M45.6522 21.7391C46.8526 21.7391 47.8261 20.7658 47.8261 19.5652C47.8261 18.3646 46.8526 17.3913 45.6522 17.3913C44.4517 17.3913 43.4783 18.3646 43.4783 19.5652C43.4783 20.7658 44.4517 21.7391 45.6522 21.7391Z" fill="#727577"/>
<path d="M54.3478 21.7391C55.5483 21.7391 56.5217 20.7658 56.5217 19.5652C56.5217 18.3646 55.5483 17.3913 54.3478 17.3913C53.1474 17.3913 52.1739 18.3646 52.1739 19.5652C52.1739 20.7658 53.1474 21.7391 54.3478 21.7391Z" fill="#727577"/>
<path d="M63.0435 21.7391C64.2439 21.7391 65.2174 20.7658 65.2174 19.5652C65.2174 18.3646 64.2439 17.3913 63.0435 17.3913C61.843 17.3913 60.8696 18.3646 60.8696 19.5652C60.8696 20.7658 61.843 21.7391 63.0435 21.7391Z" fill="#727577"/>
<path d="M71.7391 21.7391C72.9396 21.7391 73.913 20.7658 73.913 19.5652C73.913 18.3646 72.9396 17.3913 71.7391 17.3913C70.5387 17.3913 69.5652 18.3646 69.5652 19.5652C69.5652 20.7658 70.5387 21.7391 71.7391 21.7391Z" fill="#727577"/>
<path d="M80.4348 21.7391C81.6352 21.7391 82.6087 20.7658 82.6087 19.5652C82.6087 18.3646 81.6352 17.3913 80.4348 17.3913C79.2343 17.3913 78.2609 18.3646 78.2609 19.5652C78.2609 20.7658 79.2343 21.7391 80.4348 21.7391Z" fill="#727577"/>
<path d="M89.1304 21.7391C90.3309 21.7391 91.3043 20.7658 91.3043 19.5652C91.3043 18.3646 90.3309 17.3913 89.1304 17.3913C87.93 17.3913 86.9565 18.3646 86.9565 19.5652C86.9565 20.7658 87.93 21.7391 89.1304 21.7391Z" fill="#727577"/>
<path d="M97.8261 21.7391C99.0265 21.7391 100 20.7658 100 19.5652C100 18.3646 99.0265 17.3913 97.8261 17.3913C96.6257 17.3913 95.6522 18.3646 95.6522 19.5652C95.6522 20.7658 96.6257 21.7391 97.8261 21.7391Z" fill="#727577"/>
<path d="M2.17391 30.4348C3.37453 30.4348 4.34783 29.4615 4.34783 28.2609C4.34783 27.0603 3.37453 26.087 2.17391 26.087C0.973296 26.087 0 27.0603 0 28.2609C0 29.4615 0.973296 30.4348 2.17391 30.4348Z" fill="#727577"/>
<path d="M10.8696 30.4348C12.0702 30.4348 13.0435 29.4615 13.0435 28.2609C13.0435 27.0603 12.0702 26.087 10.8696 26.087C9.66895 26.087 8.69565 27.0603 8.69565 28.2609C8.69565 29.4615 9.66895 30.4348 10.8696 30.4348Z" fill="#727577"/>
<path d="M19.5652 30.4348C20.7658 30.4348 21.7391 29.4615 21.7391 28.2609C21.7391 27.0603 20.7658 26.087 19.5652 26.087C18.3646 26.087 17.3913 27.0603 17.3913 28.2609C17.3913 29.4615 18.3646 30.4348 19.5652 30.4348Z" fill="#727577"/>
<path d="M28.2609 30.4348C29.4615 30.4348 30.4348 29.4615 30.4348 28.2609C30.4348 27.0603 29.4615 26.087 28.2609 26.087C27.0603 26.087 26.087 27.0603 26.087 28.2609C26.087 29.4615 27.0603 30.4348 28.2609 30.4348Z" fill="#727577"/>
<path d="M36.9565 30.4348C38.1571 30.4348 39.1304 29.4615 39.1304 28.2609C39.1304 27.0603 38.1571 26.087 36.9565 26.087C35.7559 26.087 34.7826 27.0603 34.7826 28.2609C34.7826 29.4615 35.7559 30.4348 36.9565 30.4348Z" fill="#727577"/>
<path d="M45.6522 30.4348C46.8526 30.4348 47.8261 29.4615 47.8261 28.2609C47.8261 27.0603 46.8526 26.087 45.6522 26.087C44.4517 26.087 43.4783 27.0603 43.4783 28.2609C43.4783 29.4615 44.4517 30.4348 45.6522 30.4348Z" fill="#727577"/>
<path d="M54.3478 30.4348C55.5483 30.4348 56.5217 29.4615 56.5217 28.2609C56.5217 27.0603 55.5483 26.087 54.3478 26.087C53.1474 26.087 52.1739 27.0603 52.1739 28.2609C52.1739 29.4615 53.1474 30.4348 54.3478 30.4348Z" fill="#727577"/>
<path d="M63.0435 30.4348C64.2439 30.4348 65.2174 29.4615 65.2174 28.2609C65.2174 27.0603 64.2439 26.087 63.0435 26.087C61.843 26.087 60.8696 27.0603 60.8696 28.2609C60.8696 29.4615 61.843 30.4348 63.0435 30.4348Z" fill="#727577"/>
<path d="M71.7391 30.4348C72.9396 30.4348 73.913 29.4615 73.913 28.2609C73.913 27.0603 72.9396 26.087 71.7391 26.087C70.5387 26.087 69.5652 27.0603 69.5652 28.2609C69.5652 29.4615 70.5387 30.4348 71.7391 30.4348Z" fill="#727577"/>
<path d="M80.4348 30.4348C81.6352 30.4348 82.6087 29.4615 82.6087 28.2609C82.6087 27.0603 81.6352 26.087 80.4348 26.087C79.2343 26.087 78.2609 27.0603 78.2609 28.2609C78.2609 29.4615 79.2343 30.4348 80.4348 30.4348Z" fill="#727577"/>
<path d="M89.1304 30.4348C90.3309 30.4348 91.3043 29.4615 91.3043 28.2609C91.3043 27.0603 90.3309 26.087 89.1304 26.087C87.93 26.087 86.9565 27.0603 86.9565 28.2609C86.9565 29.4615 87.93 30.4348 89.1304 30.4348Z" fill="#727577"/>
<path d="M97.8261 30.4348C99.0265 30.4348 100 29.4615 100 28.2609C100 27.0603 99.0265 26.087 97.8261 26.087C96.6257 26.087 95.6522 27.0603 95.6522 28.2609C95.6522 29.4615 96.6257 30.4348 97.8261 30.4348Z" fill="#727577"/>
<path d="M2.17391 39.1304C3.37453 39.1304 4.34783 38.1571 4.34783 36.9565C4.34783 35.7559 3.37453 34.7826 2.17391 34.7826C0.973296 34.7826 0 35.7559 0 36.9565C0 38.1571 0.973296 39.1304 2.17391 39.1304Z" fill="#727577"/>
<path d="M10.8696 39.1304C12.0702 39.1304 13.0435 38.1571 13.0435 36.9565C13.0435 35.7559 12.0702 34.7826 10.8696 34.7826C9.66895 34.7826 8.69565 35.7559 8.69565 36.9565C8.69565 38.1571 9.66895 39.1304 10.8696 39.1304Z" fill="#727577"/>
<path d="M19.5652 39.1304C20.7658 39.1304 21.7391 38.1571 21.7391 36.9565C21.7391 35.7559 20.7658 34.7826 19.5652 34.7826C18.3646 34.7826 17.3913 35.7559 17.3913 36.9565C17.3913 38.1571 18.3646 39.1304 19.5652 39.1304Z" fill="#727577"/>
<path d="M28.2609 39.1304C29.4615 39.1304 30.4348 38.1571 30.4348 36.9565C30.4348 35.7559 29.4615 34.7826 28.2609 34.7826C27.0603 34.7826 26.087 35.7559 26.087 36.9565C26.087 38.1571 27.0603 39.1304 28.2609 39.1304Z" fill="#727577"/>
<path d="M36.9565 39.1304C38.1571 39.1304 39.1304 38.1571 39.1304 36.9565C39.1304 35.7559 38.1571 34.7826 36.9565 34.7826C35.7559 34.7826 34.7826 35.7559 34.7826 36.9565C34.7826 38.1571 35.7559 39.1304 36.9565 39.1304Z" fill="#727577"/>
<path d="M45.6522 39.1304C46.8526 39.1304 47.8261 38.1571 47.8261 36.9565C47.8261 35.7559 46.8526 34.7826 45.6522 34.7826C44.4517 34.7826 43.4783 35.7559 43.4783 36.9565C43.4783 38.1571 44.4517 39.1304 45.6522 39.1304Z" fill="#727577"/>
<path d="M54.3478 39.1304C55.5483 39.1304 56.5217 38.1571 56.5217 36.9565C56.5217 35.7559 55.5483 34.7826 54.3478 34.7826C53.1474 34.7826 52.1739 35.7559 52.1739 36.9565C52.1739 38.1571 53.1474 39.1304 54.3478 39.1304Z" fill="#727577"/>
<path d="M63.0435 39.1304C64.2439 39.1304 65.2174 38.1571 65.2174 36.9565C65.2174 35.7559 64.2439 34.7826 63.0435 34.7826C61.843 34.7826 60.8696 35.7559 60.8696 36.9565C60.8696 38.1571 61.843 39.1304 63.0435 39.1304Z" fill="#727577"/>
<path d="M71.7391 39.1304C72.9396 39.1304 73.913 38.1571 73.913 36.9565C73.913 35.7559 72.9396 34.7826 71.7391 34.7826C70.5387 34.7826 69.5652 35.7559 69.5652 36.9565C69.5652 38.1571 70.5387 39.1304 71.7391 39.1304Z" fill="#727577"/>
<path d="M80.4348 39.1304C81.6352 39.1304 82.6087 38.1571 82.6087 36.9565C82.6087 35.7559 81.6352 34.7826 80.4348 34.7826C79.2343 34.7826 78.2609 35.7559 78.2609 36.9565C78.2609 38.1571 79.2343 39.1304 80.4348 39.1304Z" fill="#727577"/>
<path d="M89.1304 39.1304C90.3309 39.1304 91.3043 38.1571 91.3043 36.9565C91.3043 35.7559 90.3309 34.7826 89.1304 34.7826C87.93 34.7826 86.9565 35.7559 86.9565 36.9565C86.9565 38.1571 87.93 39.1304 89.1304 39.1304Z" fill="#727577"/>
<path d="M97.8261 39.1304C99.0265 39.1304 100 38.1571 100 36.9565C100 35.7559 99.0265 34.7826 97.8261 34.7826C96.6257 34.7826 95.6522 35.7559 95.6522 36.9565C95.6522 38.1571 96.6257 39.1304 97.8261 39.1304Z" fill="#727577"/>
<path d="M2.17391 47.8261C3.37453 47.8261 4.34783 46.8526 4.34783 45.6522C4.34783 44.4517 3.37453 43.4783 2.17391 43.4783C0.973296 43.4783 0 44.4517 0 45.6522C0 46.8526 0.973296 47.8261 2.17391 47.8261Z" fill="#727577"/>
<path d="M10.8696 47.8261C12.0702 47.8261 13.0435 46.8526 13.0435 45.6522C13.0435 44.4517 12.0702 43.4783 10.8696 43.4783C9.66895 43.4783 8.69565 44.4517 8.69565 45.6522C8.69565 46.8526 9.66895 47.8261 10.8696 47.8261Z" fill="#727577"/>
<path d="M19.5652 47.8261C20.7658 47.8261 21.7391 46.8526 21.7391 45.6522C21.7391 44.4517 20.7658 43.4783 19.5652 43.4783C18.3646 43.4783 17.3913 44.4517 17.3913 45.6522C17.3913 46.8526 18.3646 47.8261 19.5652 47.8261Z" fill="#727577"/>
<path d="M28.2609 47.8261C29.4615 47.8261 30.4348 46.8526 30.4348 45.6522C30.4348 44.4517 29.4615 43.4783 28.2609 43.4783C27.0603 43.4783 26.087 44.4517 26.087 45.6522C26.087 46.8526 27.0603 47.8261 28.2609 47.8261Z" fill="#727577"/>
<path d="M36.9565 47.8261C38.1571 47.8261 39.1304 46.8526 39.1304 45.6522C39.1304 44.4517 38.1571 43.4783 36.9565 43.4783C35.7559 43.4783 34.7826 44.4517 34.7826 45.6522C34.7826 46.8526 35.7559 47.8261 36.9565 47.8261Z" fill="#727577"/>
<path d="M45.6522 47.8261C46.8526 47.8261 47.8261 46.8526 47.8261 45.6522C47.8261 44.4517 46.8526 43.4783 45.6522 43.4783C44.4517 43.4783 43.4783 44.4517 43.4783 45.6522C43.4783 46.8526 44.4517 47.8261 45.6522 47.8261Z" fill="#727577"/>
<path d="M54.3478 47.8261C55.5483 47.8261 56.5217 46.8526 56.5217 45.6522C56.5217 44.4517 55.5483 43.4783 54.3478 43.4783C53.1474 43.4783 52.1739 44.4517 52.1739 45.6522C52.1739 46.8526 53.1474 47.8261 54.3478 47.8261Z" fill="#727577"/>
<path d="M63.0435 47.8261C64.2439 47.8261 65.2174 46.8526 65.2174 45.6522C65.2174 44.4517 64.2439 43.4783 63.0435 43.4783C61.843 43.4783 60.8696 44.4517 60.8696 45.6522C60.8696 46.8526 61.843 47.8261 63.0435 47.8261Z" fill="#727577"/>
<path d="M71.7391 47.8261C72.9396 47.8261 73.913 46.8526 73.913 45.6522C73.913 44.4517 72.9396 43.4783 71.7391 43.4783C70.5387 43.4783 69.5652 44.4517 69.5652 45.6522C69.5652 46.8526 70.5387 47.8261 71.7391 47.8261Z" fill="#727577"/>
<path d="M80.4348 47.8261C81.6352 47.8261 82.6087 46.8526 82.6087 45.6522C82.6087 44.4517 81.6352 43.4783 80.4348 43.4783C79.2343 43.4783 78.2609 44.4517 78.2609 45.6522C78.2609 46.8526 79.2343 47.8261 80.4348 47.8261Z" fill="#727577"/>
<path d="M89.1304 47.8261C90.3309 47.8261 91.3043 46.8526 91.3043 45.6522C91.3043 44.4517 90.3309 43.4783 89.1304 43.4783C87.93 43.4783 86.9565 44.4517 86.9565 45.6522C86.9565 46.8526 87.93 47.8261 89.1304 47.8261Z" fill="#727577"/>
<path d="M97.8261 47.8261C99.0265 47.8261 100 46.8526 100 45.6522C100 44.4517 99.0265 43.4783 97.8261 43.4783C96.6257 43.4783 95.6522 44.4517 95.6522 45.6522C95.6522 46.8526 96.6257 47.8261 97.8261 47.8261Z" fill="#727577"/>
<path d="M2.17391 56.5217C3.37453 56.5217 4.34783 55.5482 4.34783 54.3478C4.34783 53.1474 3.37453 52.1739 2.17391 52.1739C0.973296 52.1739 0 53.1474 0 54.3478C0 55.5482 0.973296 56.5217 2.17391 56.5217Z" fill="#727577"/>
<path d="M10.8696 56.5217C12.0702 56.5217 13.0435 55.5482 13.0435 54.3478C13.0435 53.1474 12.0702 52.1739 10.8696 52.1739C9.66895 52.1739 8.69565 53.1474 8.69565 54.3478C8.69565 55.5482 9.66895 56.5217 10.8696 56.5217Z" fill="#727577"/>
<path d="M19.5652 56.5217C20.7658 56.5217 21.7391 55.5482 21.7391 54.3478C21.7391 53.1474 20.7658 52.1739 19.5652 52.1739C18.3646 52.1739 17.3913 53.1474 17.3913 54.3478C17.3913 55.5482 18.3646 56.5217 19.5652 56.5217Z" fill="#727577"/>
<path d="M28.2609 56.5217C29.4615 56.5217 30.4348 55.5482 30.4348 54.3478C30.4348 53.1474 29.4615 52.1739 28.2609 52.1739C27.0603 52.1739 26.087 53.1474 26.087 54.3478C26.087 55.5482 27.0603 56.5217 28.2609 56.5217Z" fill="#727577"/>
<path d="M36.9565 56.5217C38.1571 56.5217 39.1304 55.5482 39.1304 54.3478C39.1304 53.1474 38.1571 52.1739 36.9565 52.1739C35.7559 52.1739 34.7826 53.1474 34.7826 54.3478C34.7826 55.5482 35.7559 56.5217 36.9565 56.5217Z" fill="#727577"/>
<path d="M45.6522 56.5217C46.8526 56.5217 47.8261 55.5482 47.8261 54.3478C47.8261 53.1474 46.8526 52.1739 45.6522 52.1739C44.4517 52.1739 43.4783 53.1474 43.4783 54.3478C43.4783 55.5482 44.4517 56.5217 45.6522 56.5217Z" fill="#727577"/>
<path d="M54.3478 56.5217C55.5483 56.5217 56.5217 55.5482 56.5217 54.3478C56.5217 53.1474 55.5483 52.1739 54.3478 52.1739C53.1474 52.1739 52.1739 53.1474 52.1739 54.3478C52.1739 55.5482 53.1474 56.5217 54.3478 56.5217Z" fill="#727577"/>
<path d="M63.0435 56.5217C64.2439 56.5217 65.2174 55.5482 65.2174 54.3478C65.2174 53.1474 64.2439 52.1739 63.0435 52.1739C61.843 52.1739 60.8696 53.1474 60.8696 54.3478C60.8696 55.5482 61.843 56.5217 63.0435 56.5217Z" fill="#727577"/>
<path d="M71.7391 56.5217C72.9396 56.5217 73.913 55.5482 73.913 54.3478C73.913 53.1474 72.9396 52.1739 71.7391 52.1739C70.5387 52.1739 69.5652 53.1474 69.5652 54.3478C69.5652 55.5482 70.5387 56.5217 71.7391 56.5217Z" fill="#727577"/>
<path d="M80.4348 56.5217C81.6352 56.5217 82.6087 55.5482 82.6087 54.3478C82.6087 53.1474 81.6352 52.1739 80.4348 52.1739C79.2343 52.1739 78.2609 53.1474 78.2609 54.3478C78.2609 55.5482 79.2343 56.5217 80.4348 56.5217Z" fill="#727577"/>
<path d="M89.1304 56.5217C90.3309 56.5217 91.3043 55.5482 91.3043 54.3478C91.3043 53.1474 90.3309 52.1739 89.1304 52.1739C87.93 52.1739 86.9565 53.1474 86.9565 54.3478C86.9565 55.5482 87.93 56.5217 89.1304 56.5217Z" fill="#727577"/>
<path d="M97.8261 56.5217C99.0265 56.5217 100 55.5482 100 54.3478C100 53.1474 99.0265 52.1739 97.8261 52.1739C96.6257 52.1739 95.6522 53.1474 95.6522 54.3478C95.6522 55.5482 96.6257 56.5217 97.8261 56.5217Z" fill="#727577"/>
<path d="M2.17391 65.2174C3.37453 65.2174 4.34783 64.2439 4.34783 63.0435C4.34783 61.843 3.37453 60.8696 2.17391 60.8696C0.973296 60.8696 0 61.843 0 63.0435C0 64.2439 0.973296 65.2174 2.17391 65.2174Z" fill="#727577"/>
<path d="M10.8696 65.2174C12.0702 65.2174 13.0435 64.2439 13.0435 63.0435C13.0435 61.843 12.0702 60.8696 10.8696 60.8696C9.66895 60.8696 8.69565 61.843 8.69565 63.0435C8.69565 64.2439 9.66895 65.2174 10.8696 65.2174Z" fill="#727577"/>
<path d="M19.5652 65.2174C20.7658 65.2174 21.7391 64.2439 21.7391 63.0435C21.7391 61.843 20.7658 60.8696 19.5652 60.8696C18.3646 60.8696 17.3913 61.843 17.3913 63.0435C17.3913 64.2439 18.3646 65.2174 19.5652 65.2174Z" fill="#727577"/>
<path d="M28.2609 65.2174C29.4615 65.2174 30.4348 64.2439 30.4348 63.0435C30.4348 61.843 29.4615 60.8696 28.2609 60.8696C27.0603 60.8696 26.087 61.843 26.087 63.0435C26.087 64.2439 27.0603 65.2174 28.2609 65.2174Z" fill="#727577"/>
<path d="M36.9565 65.2174C38.1571 65.2174 39.1304 64.2439 39.1304 63.0435C39.1304 61.843 38.1571 60.8696 36.9565 60.8696C35.7559 60.8696 34.7826 61.843 34.7826 63.0435C34.7826 64.2439 35.7559 65.2174 36.9565 65.2174Z" fill="#727577"/>
<path d="M45.6522 65.2174C46.8526 65.2174 47.8261 64.2439 47.8261 63.0435C47.8261 61.843 46.8526 60.8696 45.6522 60.8696C44.4517 60.8696 43.4783 61.843 43.4783 63.0435C43.4783 64.2439 44.4517 65.2174 45.6522 65.2174Z" fill="#727577"/>
<path d="M54.3478 65.2174C55.5483 65.2174 56.5217 64.2439 56.5217 63.0435C56.5217 61.843 55.5483 60.8696 54.3478 60.8696C53.1474 60.8696 52.1739 61.843 52.1739 63.0435C52.1739 64.2439 53.1474 65.2174 54.3478 65.2174Z" fill="#727577"/>
<path d="M63.0435 65.2174C64.2439 65.2174 65.2174 64.2439 65.2174 63.0435C65.2174 61.843 64.2439 60.8696 63.0435 60.8696C61.843 60.8696 60.8696 61.843 60.8696 63.0435C60.8696 64.2439 61.843 65.2174 63.0435 65.2174Z" fill="#727577"/>
<path d="M71.7391 65.2174C72.9396 65.2174 73.913 64.2439 73.913 63.0435C73.913 61.843 72.9396 60.8696 71.7391 60.8696C70.5387 60.8696 69.5652 61.843 69.5652 63.0435C69.5652 64.2439 70.5387 65.2174 71.7391 65.2174Z" fill="#727577"/>
<path d="M80.4348 65.2174C81.6352 65.2174 82.6087 64.2439 82.6087 63.0435C82.6087 61.843 81.6352 60.8696 80.4348 60.8696C79.2343 60.8696 78.2609 61.843 78.2609 63.0435C78.2609 64.2439 79.2343 65.2174 80.4348 65.2174Z" fill="#727577"/>
<path d="M89.1304 65.2174C90.3309 65.2174 91.3043 64.2439 91.3043 63.0435C91.3043 61.843 90.3309 60.8696 89.1304 60.8696C87.93 60.8696 86.9565 61.843 86.9565 63.0435C86.9565 64.2439 87.93 65.2174 89.1304 65.2174Z" fill="#727577"/>
<path d="M97.8261 65.2174C99.0265 65.2174 100 64.2439 100 63.0435C100 61.843 99.0265 60.8696 97.8261 60.8696C96.6257 60.8696 95.6522 61.843 95.6522 63.0435C95.6522 64.2439 96.6257 65.2174 97.8261 65.2174Z" fill="#727577"/>
<path d="M2.17391 73.913C3.37453 73.913 4.34783 72.9395 4.34783 71.7391C4.34783 70.5387 3.37453 69.5652 2.17391 69.5652C0.973296 69.5652 0 70.5387 0 71.7391C0 72.9395 0.973296 73.913 2.17391 73.913Z" fill="#727577"/>
<path d="M10.8696 73.913C12.0702 73.913 13.0435 72.9395 13.0435 71.7391C13.0435 70.5387 12.0702 69.5652 10.8696 69.5652C9.66895 69.5652 8.69565 70.5387 8.69565 71.7391C8.69565 72.9395 9.66895 73.913 10.8696 73.913Z" fill="#727577"/>
<path d="M19.5652 73.913C20.7658 73.913 21.7391 72.9395 21.7391 71.7391C21.7391 70.5387 20.7658 69.5652 19.5652 69.5652C18.3646 69.5652 17.3913 70.5387 17.3913 71.7391C17.3913 72.9395 18.3646 73.913 19.5652 73.913Z" fill="#727577"/>
<path d="M28.2609 73.913C29.4615 73.913 30.4348 72.9395 30.4348 71.7391C30.4348 70.5387 29.4615 69.5652 28.2609 69.5652C27.0603 69.5652 26.087 70.5387 26.087 71.7391C26.087 72.9395 27.0603 73.913 28.2609 73.913Z" fill="#727577"/>
<path d="M36.9565 73.913C38.1571 73.913 39.1304 72.9395 39.1304 71.7391C39.1304 70.5387 38.1571 69.5652 36.9565 69.5652C35.7559 69.5652 34.7826 70.5387 34.7826 71.7391C34.7826 72.9395 35.7559 73.913 36.9565 73.913Z" fill="#727577"/>
<path d="M45.6522 73.913C46.8526 73.913 47.8261 72.9395 47.8261 71.7391C47.8261 70.5387 46.8526 69.5652 45.6522 69.5652C44.4517 69.5652 43.4783 70.5387 43.4783 71.7391C43.4783 72.9395 44.4517 73.913 45.6522 73.913Z" fill="#727577"/>
<path d="M54.3478 73.913C55.5483 73.913 56.5217 72.9395 56.5217 71.7391C56.5217 70.5387 55.5483 69.5652 54.3478 69.5652C53.1474 69.5652 52.1739 70.5387 52.1739 71.7391C52.1739 72.9395 53.1474 73.913 54.3478 73.913Z" fill="#727577"/>
<path d="M63.0435 73.913C64.2439 73.913 65.2174 72.9395 65.2174 71.7391C65.2174 70.5387 64.2439 69.5652 63.0435 69.5652C61.843 69.5652 60.8696 70.5387 60.8696 71.7391C60.8696 72.9395 61.843 73.913 63.0435 73.913Z" fill="#727577"/>
<path d="M71.7391 73.913C72.9396 73.913 73.913 72.9395 73.913 71.7391C73.913 70.5387 72.9396 69.5652 71.7391 69.5652C70.5387 69.5652 69.5652 70.5387 69.5652 71.7391C69.5652 72.9395 70.5387 73.913 71.7391 73.913Z" fill="#727577"/>
<path d="M80.4348 73.913C81.6352 73.913 82.6087 72.9395 82.6087 71.7391C82.6087 70.5387 81.6352 69.5652 80.4348 69.5652C79.2343 69.5652 78.2609 70.5387 78.2609 71.7391C78.2609 72.9395 79.2343 73.913 80.4348 73.913Z" fill="#727577"/>
<path d="M89.1304 73.913C90.3309 73.913 91.3043 72.9395 91.3043 71.7391C91.3043 70.5387 90.3309 69.5652 89.1304 69.5652C87.93 69.5652 86.9565 70.5387 86.9565 71.7391C86.9565 72.9395 87.93 73.913 89.1304 73.913Z" fill="#727577"/>
<path d="M97.8261 73.913C99.0265 73.913 100 72.9395 100 71.7391C100 70.5387 99.0265 69.5652 97.8261 69.5652C96.6257 69.5652 95.6522 70.5387 95.6522 71.7391C95.6522 72.9395 96.6257 73.913 97.8261 73.913Z" fill="#727577"/>
<path d="M2.17391 82.6087C3.37453 82.6087 4.34783 81.6352 4.34783 80.4348C4.34783 79.2343 3.37453 78.2609 2.17391 78.2609C0.973296 78.2609 0 79.2343 0 80.4348C0 81.6352 0.973296 82.6087 2.17391 82.6087Z" fill="#727577"/>
<path d="M10.8696 82.6087C12.0702 82.6087 13.0435 81.6352 13.0435 80.4348C13.0435 79.2343 12.0702 78.2609 10.8696 78.2609C9.66895 78.2609 8.69565 79.2343 8.69565 80.4348C8.69565 81.6352 9.66895 82.6087 10.8696 82.6087Z" fill="#727577"/>
<path d="M19.5652 82.6087C20.7658 82.6087 21.7391 81.6352 21.7391 80.4348C21.7391 79.2343 20.7658 78.2609 19.5652 78.2609C18.3646 78.2609 17.3913 79.2343 17.3913 80.4348C17.3913 81.6352 18.3646 82.6087 19.5652 82.6087Z" fill="#727577"/>
<path d="M28.2609 82.6087C29.4615 82.6087 30.4348 81.6352 30.4348 80.4348C30.4348 79.2343 29.4615 78.2609 28.2609 78.2609C27.0603 78.2609 26.087 79.2343 26.087 80.4348C26.087 81.6352 27.0603 82.6087 28.2609 82.6087Z" fill="#727577"/>
<path d="M36.9565 82.6087C38.1571 82.6087 39.1304 81.6352 39.1304 80.4348C39.1304 79.2343 38.1571 78.2609 36.9565 78.2609C35.7559 78.2609 34.7826 79.2343 34.7826 80.4348C34.7826 81.6352 35.7559 82.6087 36.9565 82.6087Z" fill="#727577"/>
<path d="M45.6522 82.6087C46.8526 82.6087 47.8261 81.6352 47.8261 80.4348C47.8261 79.2343 46.8526 78.2609 45.6522 78.2609C44.4517 78.2609 43.4783 79.2343 43.4783 80.4348C43.4783 81.6352 44.4517 82.6087 45.6522 82.6087Z" fill="#727577"/>
<path d="M54.3478 82.6087C55.5483 82.6087 56.5217 81.6352 56.5217 80.4348C56.5217 79.2343 55.5483 78.2609 54.3478 78.2609C53.1474 78.2609 52.1739 79.2343 52.1739 80.4348C52.1739 81.6352 53.1474 82.6087 54.3478 82.6087Z" fill="#727577"/>
<path d="M63.0435 82.6087C64.2439 82.6087 65.2174 81.6352 65.2174 80.4348C65.2174 79.2343 64.2439 78.2609 63.0435 78.2609C61.843 78.2609 60.8696 79.2343 60.8696 80.4348C60.8696 81.6352 61.843 82.6087 63.0435 82.6087Z" fill="#727577"/>
<path d="M71.7391 82.6087C72.9396 82.6087 73.913 81.6352 73.913 80.4348C73.913 79.2343 72.9396 78.2609 71.7391 78.2609C70.5387 78.2609 69.5652 79.2343 69.5652 80.4348C69.5652 81.6352 70.5387 82.6087 71.7391 82.6087Z" fill="#727577"/>
<path d="M80.4348 82.6087C81.6352 82.6087 82.6087 81.6352 82.6087 80.4348C82.6087 79.2343 81.6352 78.2609 80.4348 78.2609C79.2343 78.2609 78.2609 79.2343 78.2609 80.4348C78.2609 81.6352 79.2343 82.6087 80.4348 82.6087Z" fill="#727577"/>
<path d="M89.1304 82.6087C90.3309 82.6087 91.3043 81.6352 91.3043 80.4348C91.3043 79.2343 90.3309 78.2609 89.1304 78.2609C87.93 78.2609 86.9565 79.2343 86.9565 80.4348C86.9565 81.6352 87.93 82.6087 89.1304 82.6087Z" fill="#727577"/>
<path d="M97.8261 82.6087C99.0265 82.6087 100 81.6352 100 80.4348C100 79.2343 99.0265 78.2609 97.8261 78.2609C96.6257 78.2609 95.6522 79.2343 95.6522 80.4348C95.6522 81.6352 96.6257 82.6087 97.8261 82.6087Z" fill="#727577"/>
<path d="M2.17391 91.3044C3.37453 91.3044 4.34783 90.3309 4.34783 89.1305C4.34783 87.93 3.37453 86.9565 2.17391 86.9565C0.973296 86.9565 0 87.93 0 89.1305C0 90.3309 0.973296 91.3044 2.17391 91.3044Z" fill="#727577"/>
<path d="M10.8696 91.3044C12.0702 91.3044 13.0435 90.3309 13.0435 89.1305C13.0435 87.93 12.0702 86.9565 10.8696 86.9565C9.66895 86.9565 8.69565 87.93 8.69565 89.1305C8.69565 90.3309 9.66895 91.3044 10.8696 91.3044Z" fill="#727577"/>
<path d="M19.5652 91.3044C20.7658 91.3044 21.7391 90.3309 21.7391 89.1305C21.7391 87.93 20.7658 86.9565 19.5652 86.9565C18.3646 86.9565 17.3913 87.93 17.3913 89.1305C17.3913 90.3309 18.3646 91.3044 19.5652 91.3044Z" fill="#727577"/>
<path d="M28.2609 91.3044C29.4615 91.3044 30.4348 90.3309 30.4348 89.1305C30.4348 87.93 29.4615 86.9565 28.2609 86.9565C27.0603 86.9565 26.087 87.93 26.087 89.1305C26.087 90.3309 27.0603 91.3044 28.2609 91.3044Z" fill="#727577"/>
<path d="M36.9565 91.3044C38.1571 91.3044 39.1304 90.3309 39.1304 89.1305C39.1304 87.93 38.1571 86.9565 36.9565 86.9565C35.7559 86.9565 34.7826 87.93 34.7826 89.1305C34.7826 90.3309 35.7559 91.3044 36.9565 91.3044Z" fill="#727577"/>
<path d="M45.6522 91.3044C46.8526 91.3044 47.8261 90.3309 47.8261 89.1305C47.8261 87.93 46.8526 86.9565 45.6522 86.9565C44.4517 86.9565 43.4783 87.93 43.4783 89.1305C43.4783 90.3309 44.4517 91.3044 45.6522 91.3044Z" fill="#727577"/>
<path d="M54.3478 91.3044C55.5483 91.3044 56.5217 90.3309 56.5217 89.1305C56.5217 87.93 55.5483 86.9565 54.3478 86.9565C53.1474 86.9565 52.1739 87.93 52.1739 89.1305C52.1739 90.3309 53.1474 91.3044 54.3478 91.3044Z" fill="#727577"/>
<path d="M63.0435 91.3044C64.2439 91.3044 65.2174 90.3309 65.2174 89.1305C65.2174 87.93 64.2439 86.9565 63.0435 86.9565C61.843 86.9565 60.8696 87.93 60.8696 89.1305C60.8696 90.3309 61.843 91.3044 63.0435 91.3044Z" fill="#727577"/>
<path d="M71.7391 91.3044C72.9396 91.3044 73.913 90.3309 73.913 89.1305C73.913 87.93 72.9396 86.9565 71.7391 86.9565C70.5387 86.9565 69.5652 87.93 69.5652 89.1305C69.5652 90.3309 70.5387 91.3044 71.7391 91.3044Z" fill="#727577"/>
<path d="M80.4348 91.3044C81.6352 91.3044 82.6087 90.3309 82.6087 89.1305C82.6087 87.93 81.6352 86.9565 80.4348 86.9565C79.2343 86.9565 78.2609 87.93 78.2609 89.1305C78.2609 90.3309 79.2343 91.3044 80.4348 91.3044Z" fill="#727577"/>
<path d="M89.1304 91.3044C90.3309 91.3044 91.3043 90.3309 91.3043 89.1305C91.3043 87.93 90.3309 86.9565 89.1304 86.9565C87.93 86.9565 86.9565 87.93 86.9565 89.1305C86.9565 90.3309 87.93 91.3044 89.1304 91.3044Z" fill="#727577"/>
<path d="M97.8261 91.3044C99.0265 91.3044 100 90.3309 100 89.1305C100 87.93 99.0265 86.9565 97.8261 86.9565C96.6257 86.9565 95.6522 87.93 95.6522 89.1305C95.6522 90.3309 96.6257 91.3044 97.8261 91.3044Z" fill="#727577"/>
<path d="M2.17391 100C3.37453 100 4.34783 99.0265 4.34783 97.8261C4.34783 96.6256 3.37453 95.6522 2.17391 95.6522C0.973296 95.6522 0 96.6256 0 97.8261C0 99.0265 0.973296 100 2.17391 100Z" fill="#727577"/>
<path d="M10.8696 100C12.0702 100 13.0435 99.0265 13.0435 97.8261C13.0435 96.6256 12.0702 95.6522 10.8696 95.6522C9.66895 95.6522 8.69565 96.6256 8.69565 97.8261C8.69565 99.0265 9.66895 100 10.8696 100Z" fill="#727577"/>
<path d="M19.5652 100C20.7658 100 21.7391 99.0265 21.7391 97.8261C21.7391 96.6256 20.7658 95.6522 19.5652 95.6522C18.3646 95.6522 17.3913 96.6256 17.3913 97.8261C17.3913 99.0265 18.3646 100 19.5652 100Z" fill="#727577"/>
<path d="M28.2609 100C29.4615 100 30.4348 99.0265 30.4348 97.8261C30.4348 96.6256 29.4615 95.6522 28.2609 95.6522C27.0603 95.6522 26.087 96.6256 26.087 97.8261C26.087 99.0265 27.0603 100 28.2609 100Z" fill="#727577"/>
<path d="M36.9565 100C38.1571 100 39.1304 99.0265 39.1304 97.8261C39.1304 96.6256 38.1571 95.6522 36.9565 95.6522C35.7559 95.6522 34.7826 96.6256 34.7826 97.8261C34.7826 99.0265 35.7559 100 36.9565 100Z" fill="#727577"/>
<path d="M45.6522 100C46.8526 100 47.8261 99.0265 47.8261 97.8261C47.8261 96.6256 46.8526 95.6522 45.6522 95.6522C44.4517 95.6522 43.4783 96.6256 43.4783 97.8261C43.4783 99.0265 44.4517 100 45.6522 100Z" fill="#727577"/>
<path d="M54.3478 100C55.5483 100 56.5217 99.0265 56.5217 97.8261C56.5217 96.6256 55.5483 95.6522 54.3478 95.6522C53.1474 95.6522 52.1739 96.6256 52.1739 97.8261C52.1739 99.0265 53.1474 100 54.3478 100Z" fill="#727577"/>
<path d="M63.0435 100C64.2439 100 65.2174 99.0265 65.2174 97.8261C65.2174 96.6256 64.2439 95.6522 63.0435 95.6522C61.843 95.6522 60.8696 96.6256 60.8696 97.8261C60.8696 99.0265 61.843 100 63.0435 100Z" fill="#727577"/>
<path d="M71.7391 100C72.9396 100 73.913 99.0265 73.913 97.8261C73.913 96.6256 72.9396 95.6522 71.7391 95.6522C70.5387 95.6522 69.5652 96.6256 69.5652 97.8261C69.5652 99.0265 70.5387 100 71.7391 100Z" fill="#727577"/>
<path d="M80.4348 100C81.6352 100 82.6087 99.0265 82.6087 97.8261C82.6087 96.6256 81.6352 95.6522 80.4348 95.6522C79.2343 95.6522 78.2609 96.6256 78.2609 97.8261C78.2609 99.0265 79.2343 100 80.4348 100Z" fill="#727577"/>
<path d="M89.1304 100C90.3309 100 91.3043 99.0265 91.3043 97.8261C91.3043 96.6256 90.3309 95.6522 89.1304 95.6522C87.93 95.6522 86.9565 96.6256 86.9565 97.8261C86.9565 99.0265 87.93 100 89.1304 100Z" fill="#727577"/>
<path d="M97.8261 100C99.0265 100 100 99.0265 100 97.8261C100 96.6256 99.0265 95.6522 97.8261 95.6522C96.6257 95.6522 95.6522 96.6256 95.6522 97.8261C95.6522 99.0265 96.6257 100 97.8261 100Z" fill="#727577"/>
</g>
<defs>
<clipPath id="clip0_1108_815">
<rect width="100" height="100" fill="white"/>
</clipPath>
</defs>
</svg>
