<svg width="230" height="230" viewBox="0 0 230 230" fill="none" xmlns="http://www.w3.org/2000/svg">
<g clip-path="url(#clip0_1108_523)">
<path d="M5 10C7.76142 10 10 7.76142 10 5C10 2.23858 7.76142 0 5 0C2.23858 0 0 2.23858 0 5C0 7.76142 2.23858 10 5 10Z" fill="#727577"/>
<path d="M25 10C27.7614 10 30 7.76142 30 5C30 2.23858 27.7614 0 25 0C22.2386 0 20 2.23858 20 5C20 7.76142 22.2386 10 25 10Z" fill="#727577"/>
<path d="M45 10C47.7614 10 50 7.76142 50 5C50 2.23858 47.7614 0 45 0C42.2386 0 40 2.23858 40 5C40 7.76142 42.2386 10 45 10Z" fill="#727577"/>
<path d="M65 10C67.7614 10 70 7.76142 70 5C70 2.23858 67.7614 0 65 0C62.2386 0 60 2.23858 60 5C60 7.76142 62.2386 10 65 10Z" fill="#727577"/>
<path d="M85 10C87.7614 10 90 7.76142 90 5C90 2.23858 87.7614 0 85 0C82.2386 0 80 2.23858 80 5C80 7.76142 82.2386 10 85 10Z" fill="#727577"/>
<path d="M105 10C107.761 10 110 7.76142 110 5C110 2.23858 107.761 0 105 0C102.239 0 100 2.23858 100 5C100 7.76142 102.239 10 105 10Z" fill="#727577"/>
<path d="M125 10C127.761 10 130 7.76142 130 5C130 2.23858 127.761 0 125 0C122.239 0 120 2.23858 120 5C120 7.76142 122.239 10 125 10Z" fill="#727577"/>
<path d="M145 10C147.761 10 150 7.76142 150 5C150 2.23858 147.761 0 145 0C142.239 0 140 2.23858 140 5C140 7.76142 142.239 10 145 10Z" fill="#727577"/>
<path d="M165 10C167.761 10 170 7.76142 170 5C170 2.23858 167.761 0 165 0C162.239 0 160 2.23858 160 5C160 7.76142 162.239 10 165 10Z" fill="#727577"/>
<path d="M185 10C187.761 10 190 7.76142 190 5C190 2.23858 187.761 0 185 0C182.239 0 180 2.23858 180 5C180 7.76142 182.239 10 185 10Z" fill="#727577"/>
<path d="M205 10C207.761 10 210 7.76142 210 5C210 2.23858 207.761 0 205 0C202.239 0 200 2.23858 200 5C200 7.76142 202.239 10 205 10Z" fill="#727577"/>
<path d="M225 10C227.761 10 230 7.76142 230 5C230 2.23858 227.761 0 225 0C222.239 0 220 2.23858 220 5C220 7.76142 222.239 10 225 10Z" fill="#727577"/>
<path d="M5 30C7.76142 30 10 27.7614 10 25C10 22.2386 7.76142 20 5 20C2.23858 20 0 22.2386 0 25C0 27.7614 2.23858 30 5 30Z" fill="#727577"/>
<path d="M25 30C27.7614 30 30 27.7614 30 25C30 22.2386 27.7614 20 25 20C22.2386 20 20 22.2386 20 25C20 27.7614 22.2386 30 25 30Z" fill="#727577"/>
<path d="M45 30C47.7614 30 50 27.7614 50 25C50 22.2386 47.7614 20 45 20C42.2386 20 40 22.2386 40 25C40 27.7614 42.2386 30 45 30Z" fill="#727577"/>
<path d="M65 30C67.7614 30 70 27.7614 70 25C70 22.2386 67.7614 20 65 20C62.2386 20 60 22.2386 60 25C60 27.7614 62.2386 30 65 30Z" fill="#727577"/>
<path d="M85 30C87.7614 30 90 27.7614 90 25C90 22.2386 87.7614 20 85 20C82.2386 20 80 22.2386 80 25C80 27.7614 82.2386 30 85 30Z" fill="#727577"/>
<path d="M105 30C107.761 30 110 27.7614 110 25C110 22.2386 107.761 20 105 20C102.239 20 100 22.2386 100 25C100 27.7614 102.239 30 105 30Z" fill="#727577"/>
<path d="M125 30C127.761 30 130 27.7614 130 25C130 22.2386 127.761 20 125 20C122.239 20 120 22.2386 120 25C120 27.7614 122.239 30 125 30Z" fill="#727577"/>
<path d="M145 30C147.761 30 150 27.7614 150 25C150 22.2386 147.761 20 145 20C142.239 20 140 22.2386 140 25C140 27.7614 142.239 30 145 30Z" fill="#727577"/>
<path d="M165 30C167.761 30 170 27.7614 170 25C170 22.2386 167.761 20 165 20C162.239 20 160 22.2386 160 25C160 27.7614 162.239 30 165 30Z" fill="#727577"/>
<path d="M185 30C187.761 30 190 27.7614 190 25C190 22.2386 187.761 20 185 20C182.239 20 180 22.2386 180 25C180 27.7614 182.239 30 185 30Z" fill="#727577"/>
<path d="M205 30C207.761 30 210 27.7614 210 25C210 22.2386 207.761 20 205 20C202.239 20 200 22.2386 200 25C200 27.7614 202.239 30 205 30Z" fill="#727577"/>
<path d="M225 30C227.761 30 230 27.7614 230 25C230 22.2386 227.761 20 225 20C222.239 20 220 22.2386 220 25C220 27.7614 222.239 30 225 30Z" fill="#727577"/>
<path d="M5 50C7.76142 50 10 47.7614 10 45C10 42.2386 7.76142 40 5 40C2.23858 40 0 42.2386 0 45C0 47.7614 2.23858 50 5 50Z" fill="#727577"/>
<path d="M25 50C27.7614 50 30 47.7614 30 45C30 42.2386 27.7614 40 25 40C22.2386 40 20 42.2386 20 45C20 47.7614 22.2386 50 25 50Z" fill="#727577"/>
<path d="M45 50C47.7614 50 50 47.7614 50 45C50 42.2386 47.7614 40 45 40C42.2386 40 40 42.2386 40 45C40 47.7614 42.2386 50 45 50Z" fill="#727577"/>
<path d="M65 50C67.7614 50 70 47.7614 70 45C70 42.2386 67.7614 40 65 40C62.2386 40 60 42.2386 60 45C60 47.7614 62.2386 50 65 50Z" fill="#727577"/>
<path d="M85 50C87.7614 50 90 47.7614 90 45C90 42.2386 87.7614 40 85 40C82.2386 40 80 42.2386 80 45C80 47.7614 82.2386 50 85 50Z" fill="#727577"/>
<path d="M105 50C107.761 50 110 47.7614 110 45C110 42.2386 107.761 40 105 40C102.239 40 100 42.2386 100 45C100 47.7614 102.239 50 105 50Z" fill="#727577"/>
<path d="M125 50C127.761 50 130 47.7614 130 45C130 42.2386 127.761 40 125 40C122.239 40 120 42.2386 120 45C120 47.7614 122.239 50 125 50Z" fill="#727577"/>
<path d="M145 50C147.761 50 150 47.7614 150 45C150 42.2386 147.761 40 145 40C142.239 40 140 42.2386 140 45C140 47.7614 142.239 50 145 50Z" fill="#727577"/>
<path d="M165 50C167.761 50 170 47.7614 170 45C170 42.2386 167.761 40 165 40C162.239 40 160 42.2386 160 45C160 47.7614 162.239 50 165 50Z" fill="#727577"/>
<path d="M185 50C187.761 50 190 47.7614 190 45C190 42.2386 187.761 40 185 40C182.239 40 180 42.2386 180 45C180 47.7614 182.239 50 185 50Z" fill="#727577"/>
<path d="M205 50C207.761 50 210 47.7614 210 45C210 42.2386 207.761 40 205 40C202.239 40 200 42.2386 200 45C200 47.7614 202.239 50 205 50Z" fill="#727577"/>
<path d="M225 50C227.761 50 230 47.7614 230 45C230 42.2386 227.761 40 225 40C222.239 40 220 42.2386 220 45C220 47.7614 222.239 50 225 50Z" fill="#727577"/>
<path d="M5 70C7.76142 70 10 67.7614 10 65C10 62.2386 7.76142 60 5 60C2.23858 60 0 62.2386 0 65C0 67.7614 2.23858 70 5 70Z" fill="#727577"/>
<path d="M25 70C27.7614 70 30 67.7614 30 65C30 62.2386 27.7614 60 25 60C22.2386 60 20 62.2386 20 65C20 67.7614 22.2386 70 25 70Z" fill="#727577"/>
<path d="M45 70C47.7614 70 50 67.7614 50 65C50 62.2386 47.7614 60 45 60C42.2386 60 40 62.2386 40 65C40 67.7614 42.2386 70 45 70Z" fill="#727577"/>
<path d="M65 70C67.7614 70 70 67.7614 70 65C70 62.2386 67.7614 60 65 60C62.2386 60 60 62.2386 60 65C60 67.7614 62.2386 70 65 70Z" fill="#727577"/>
<path d="M85 70C87.7614 70 90 67.7614 90 65C90 62.2386 87.7614 60 85 60C82.2386 60 80 62.2386 80 65C80 67.7614 82.2386 70 85 70Z" fill="#727577"/>
<path d="M105 70C107.761 70 110 67.7614 110 65C110 62.2386 107.761 60 105 60C102.239 60 100 62.2386 100 65C100 67.7614 102.239 70 105 70Z" fill="#727577"/>
<path d="M125 70C127.761 70 130 67.7614 130 65C130 62.2386 127.761 60 125 60C122.239 60 120 62.2386 120 65C120 67.7614 122.239 70 125 70Z" fill="#727577"/>
<path d="M145 70C147.761 70 150 67.7614 150 65C150 62.2386 147.761 60 145 60C142.239 60 140 62.2386 140 65C140 67.7614 142.239 70 145 70Z" fill="#727577"/>
<path d="M165 70C167.761 70 170 67.7614 170 65C170 62.2386 167.761 60 165 60C162.239 60 160 62.2386 160 65C160 67.7614 162.239 70 165 70Z" fill="#727577"/>
<path d="M185 70C187.761 70 190 67.7614 190 65C190 62.2386 187.761 60 185 60C182.239 60 180 62.2386 180 65C180 67.7614 182.239 70 185 70Z" fill="#727577"/>
<path d="M205 70C207.761 70 210 67.7614 210 65C210 62.2386 207.761 60 205 60C202.239 60 200 62.2386 200 65C200 67.7614 202.239 70 205 70Z" fill="#727577"/>
<path d="M225 70C227.761 70 230 67.7614 230 65C230 62.2386 227.761 60 225 60C222.239 60 220 62.2386 220 65C220 67.7614 222.239 70 225 70Z" fill="#727577"/>
<path d="M5 90C7.76142 90 10 87.7614 10 85C10 82.2386 7.76142 80 5 80C2.23858 80 0 82.2386 0 85C0 87.7614 2.23858 90 5 90Z" fill="#727577"/>
<path d="M25 90C27.7614 90 30 87.7614 30 85C30 82.2386 27.7614 80 25 80C22.2386 80 20 82.2386 20 85C20 87.7614 22.2386 90 25 90Z" fill="#727577"/>
<path d="M45 90C47.7614 90 50 87.7614 50 85C50 82.2386 47.7614 80 45 80C42.2386 80 40 82.2386 40 85C40 87.7614 42.2386 90 45 90Z" fill="#727577"/>
<path d="M65 90C67.7614 90 70 87.7614 70 85C70 82.2386 67.7614 80 65 80C62.2386 80 60 82.2386 60 85C60 87.7614 62.2386 90 65 90Z" fill="#727577"/>
<path d="M85 90C87.7614 90 90 87.7614 90 85C90 82.2386 87.7614 80 85 80C82.2386 80 80 82.2386 80 85C80 87.7614 82.2386 90 85 90Z" fill="#727577"/>
<path d="M105 90C107.761 90 110 87.7614 110 85C110 82.2386 107.761 80 105 80C102.239 80 100 82.2386 100 85C100 87.7614 102.239 90 105 90Z" fill="#727577"/>
<path d="M125 90C127.761 90 130 87.7614 130 85C130 82.2386 127.761 80 125 80C122.239 80 120 82.2386 120 85C120 87.7614 122.239 90 125 90Z" fill="#727577"/>
<path d="M145 90C147.761 90 150 87.7614 150 85C150 82.2386 147.761 80 145 80C142.239 80 140 82.2386 140 85C140 87.7614 142.239 90 145 90Z" fill="#727577"/>
<path d="M165 90C167.761 90 170 87.7614 170 85C170 82.2386 167.761 80 165 80C162.239 80 160 82.2386 160 85C160 87.7614 162.239 90 165 90Z" fill="#727577"/>
<path d="M185 90C187.761 90 190 87.7614 190 85C190 82.2386 187.761 80 185 80C182.239 80 180 82.2386 180 85C180 87.7614 182.239 90 185 90Z" fill="#727577"/>
<path d="M205 90C207.761 90 210 87.7614 210 85C210 82.2386 207.761 80 205 80C202.239 80 200 82.2386 200 85C200 87.7614 202.239 90 205 90Z" fill="#727577"/>
<path d="M225 90C227.761 90 230 87.7614 230 85C230 82.2386 227.761 80 225 80C222.239 80 220 82.2386 220 85C220 87.7614 222.239 90 225 90Z" fill="#727577"/>
<path d="M5 110C7.76142 110 10 107.761 10 105C10 102.239 7.76142 100 5 100C2.23858 100 0 102.239 0 105C0 107.761 2.23858 110 5 110Z" fill="#727577"/>
<path d="M25 110C27.7614 110 30 107.761 30 105C30 102.239 27.7614 100 25 100C22.2386 100 20 102.239 20 105C20 107.761 22.2386 110 25 110Z" fill="#727577"/>
<path d="M45 110C47.7614 110 50 107.761 50 105C50 102.239 47.7614 100 45 100C42.2386 100 40 102.239 40 105C40 107.761 42.2386 110 45 110Z" fill="#727577"/>
<path d="M65 110C67.7614 110 70 107.761 70 105C70 102.239 67.7614 100 65 100C62.2386 100 60 102.239 60 105C60 107.761 62.2386 110 65 110Z" fill="#727577"/>
<path d="M85 110C87.7614 110 90 107.761 90 105C90 102.239 87.7614 100 85 100C82.2386 100 80 102.239 80 105C80 107.761 82.2386 110 85 110Z" fill="#727577"/>
<path d="M105 110C107.761 110 110 107.761 110 105C110 102.239 107.761 100 105 100C102.239 100 100 102.239 100 105C100 107.761 102.239 110 105 110Z" fill="#727577"/>
<path d="M125 110C127.761 110 130 107.761 130 105C130 102.239 127.761 100 125 100C122.239 100 120 102.239 120 105C120 107.761 122.239 110 125 110Z" fill="#727577"/>
<path d="M145 110C147.761 110 150 107.761 150 105C150 102.239 147.761 100 145 100C142.239 100 140 102.239 140 105C140 107.761 142.239 110 145 110Z" fill="#727577"/>
<path d="M165 110C167.761 110 170 107.761 170 105C170 102.239 167.761 100 165 100C162.239 100 160 102.239 160 105C160 107.761 162.239 110 165 110Z" fill="#727577"/>
<path d="M185 110C187.761 110 190 107.761 190 105C190 102.239 187.761 100 185 100C182.239 100 180 102.239 180 105C180 107.761 182.239 110 185 110Z" fill="#727577"/>
<path d="M205 110C207.761 110 210 107.761 210 105C210 102.239 207.761 100 205 100C202.239 100 200 102.239 200 105C200 107.761 202.239 110 205 110Z" fill="#727577"/>
<path d="M225 110C227.761 110 230 107.761 230 105C230 102.239 227.761 100 225 100C222.239 100 220 102.239 220 105C220 107.761 222.239 110 225 110Z" fill="#727577"/>
<path d="M5 130C7.76142 130 10 127.761 10 125C10 122.239 7.76142 120 5 120C2.23858 120 0 122.239 0 125C0 127.761 2.23858 130 5 130Z" fill="#727577"/>
<path d="M25 130C27.7614 130 30 127.761 30 125C30 122.239 27.7614 120 25 120C22.2386 120 20 122.239 20 125C20 127.761 22.2386 130 25 130Z" fill="#727577"/>
<path d="M45 130C47.7614 130 50 127.761 50 125C50 122.239 47.7614 120 45 120C42.2386 120 40 122.239 40 125C40 127.761 42.2386 130 45 130Z" fill="#727577"/>
<path d="M65 130C67.7614 130 70 127.761 70 125C70 122.239 67.7614 120 65 120C62.2386 120 60 122.239 60 125C60 127.761 62.2386 130 65 130Z" fill="#727577"/>
<path d="M85 130C87.7614 130 90 127.761 90 125C90 122.239 87.7614 120 85 120C82.2386 120 80 122.239 80 125C80 127.761 82.2386 130 85 130Z" fill="#727577"/>
<path d="M105 130C107.761 130 110 127.761 110 125C110 122.239 107.761 120 105 120C102.239 120 100 122.239 100 125C100 127.761 102.239 130 105 130Z" fill="#727577"/>
<path d="M125 130C127.761 130 130 127.761 130 125C130 122.239 127.761 120 125 120C122.239 120 120 122.239 120 125C120 127.761 122.239 130 125 130Z" fill="#727577"/>
<path d="M145 130C147.761 130 150 127.761 150 125C150 122.239 147.761 120 145 120C142.239 120 140 122.239 140 125C140 127.761 142.239 130 145 130Z" fill="#727577"/>
<path d="M165 130C167.761 130 170 127.761 170 125C170 122.239 167.761 120 165 120C162.239 120 160 122.239 160 125C160 127.761 162.239 130 165 130Z" fill="#727577"/>
<path d="M185 130C187.761 130 190 127.761 190 125C190 122.239 187.761 120 185 120C182.239 120 180 122.239 180 125C180 127.761 182.239 130 185 130Z" fill="#727577"/>
<path d="M205 130C207.761 130 210 127.761 210 125C210 122.239 207.761 120 205 120C202.239 120 200 122.239 200 125C200 127.761 202.239 130 205 130Z" fill="#727577"/>
<path d="M225 130C227.761 130 230 127.761 230 125C230 122.239 227.761 120 225 120C222.239 120 220 122.239 220 125C220 127.761 222.239 130 225 130Z" fill="#727577"/>
<path d="M5 150C7.76142 150 10 147.761 10 145C10 142.239 7.76142 140 5 140C2.23858 140 0 142.239 0 145C0 147.761 2.23858 150 5 150Z" fill="#727577"/>
<path d="M25 150C27.7614 150 30 147.761 30 145C30 142.239 27.7614 140 25 140C22.2386 140 20 142.239 20 145C20 147.761 22.2386 150 25 150Z" fill="#727577"/>
<path d="M45 150C47.7614 150 50 147.761 50 145C50 142.239 47.7614 140 45 140C42.2386 140 40 142.239 40 145C40 147.761 42.2386 150 45 150Z" fill="#727577"/>
<path d="M65 150C67.7614 150 70 147.761 70 145C70 142.239 67.7614 140 65 140C62.2386 140 60 142.239 60 145C60 147.761 62.2386 150 65 150Z" fill="#727577"/>
<path d="M85 150C87.7614 150 90 147.761 90 145C90 142.239 87.7614 140 85 140C82.2386 140 80 142.239 80 145C80 147.761 82.2386 150 85 150Z" fill="#727577"/>
<path d="M105 150C107.761 150 110 147.761 110 145C110 142.239 107.761 140 105 140C102.239 140 100 142.239 100 145C100 147.761 102.239 150 105 150Z" fill="#727577"/>
<path d="M125 150C127.761 150 130 147.761 130 145C130 142.239 127.761 140 125 140C122.239 140 120 142.239 120 145C120 147.761 122.239 150 125 150Z" fill="#727577"/>
<path d="M145 150C147.761 150 150 147.761 150 145C150 142.239 147.761 140 145 140C142.239 140 140 142.239 140 145C140 147.761 142.239 150 145 150Z" fill="#727577"/>
<path d="M165 150C167.761 150 170 147.761 170 145C170 142.239 167.761 140 165 140C162.239 140 160 142.239 160 145C160 147.761 162.239 150 165 150Z" fill="#727577"/>
<path d="M185 150C187.761 150 190 147.761 190 145C190 142.239 187.761 140 185 140C182.239 140 180 142.239 180 145C180 147.761 182.239 150 185 150Z" fill="#727577"/>
<path d="M205 150C207.761 150 210 147.761 210 145C210 142.239 207.761 140 205 140C202.239 140 200 142.239 200 145C200 147.761 202.239 150 205 150Z" fill="#727577"/>
<path d="M225 150C227.761 150 230 147.761 230 145C230 142.239 227.761 140 225 140C222.239 140 220 142.239 220 145C220 147.761 222.239 150 225 150Z" fill="#727577"/>
<path d="M5 170C7.76142 170 10 167.761 10 165C10 162.239 7.76142 160 5 160C2.23858 160 0 162.239 0 165C0 167.761 2.23858 170 5 170Z" fill="#727577"/>
<path d="M25 170C27.7614 170 30 167.761 30 165C30 162.239 27.7614 160 25 160C22.2386 160 20 162.239 20 165C20 167.761 22.2386 170 25 170Z" fill="#727577"/>
<path d="M45 170C47.7614 170 50 167.761 50 165C50 162.239 47.7614 160 45 160C42.2386 160 40 162.239 40 165C40 167.761 42.2386 170 45 170Z" fill="#727577"/>
<path d="M65 170C67.7614 170 70 167.761 70 165C70 162.239 67.7614 160 65 160C62.2386 160 60 162.239 60 165C60 167.761 62.2386 170 65 170Z" fill="#727577"/>
<path d="M85 170C87.7614 170 90 167.761 90 165C90 162.239 87.7614 160 85 160C82.2386 160 80 162.239 80 165C80 167.761 82.2386 170 85 170Z" fill="#727577"/>
<path d="M105 170C107.761 170 110 167.761 110 165C110 162.239 107.761 160 105 160C102.239 160 100 162.239 100 165C100 167.761 102.239 170 105 170Z" fill="#727577"/>
<path d="M125 170C127.761 170 130 167.761 130 165C130 162.239 127.761 160 125 160C122.239 160 120 162.239 120 165C120 167.761 122.239 170 125 170Z" fill="#727577"/>
<path d="M145 170C147.761 170 150 167.761 150 165C150 162.239 147.761 160 145 160C142.239 160 140 162.239 140 165C140 167.761 142.239 170 145 170Z" fill="#727577"/>
<path d="M165 170C167.761 170 170 167.761 170 165C170 162.239 167.761 160 165 160C162.239 160 160 162.239 160 165C160 167.761 162.239 170 165 170Z" fill="#727577"/>
<path d="M185 170C187.761 170 190 167.761 190 165C190 162.239 187.761 160 185 160C182.239 160 180 162.239 180 165C180 167.761 182.239 170 185 170Z" fill="#727577"/>
<path d="M205 170C207.761 170 210 167.761 210 165C210 162.239 207.761 160 205 160C202.239 160 200 162.239 200 165C200 167.761 202.239 170 205 170Z" fill="#727577"/>
<path d="M225 170C227.761 170 230 167.761 230 165C230 162.239 227.761 160 225 160C222.239 160 220 162.239 220 165C220 167.761 222.239 170 225 170Z" fill="#727577"/>
<path d="M5 190C7.76142 190 10 187.761 10 185C10 182.239 7.76142 180 5 180C2.23858 180 0 182.239 0 185C0 187.761 2.23858 190 5 190Z" fill="#727577"/>
<path d="M25 190C27.7614 190 30 187.761 30 185C30 182.239 27.7614 180 25 180C22.2386 180 20 182.239 20 185C20 187.761 22.2386 190 25 190Z" fill="#727577"/>
<path d="M45 190C47.7614 190 50 187.761 50 185C50 182.239 47.7614 180 45 180C42.2386 180 40 182.239 40 185C40 187.761 42.2386 190 45 190Z" fill="#727577"/>
<path d="M65 190C67.7614 190 70 187.761 70 185C70 182.239 67.7614 180 65 180C62.2386 180 60 182.239 60 185C60 187.761 62.2386 190 65 190Z" fill="#727577"/>
<path d="M85 190C87.7614 190 90 187.761 90 185C90 182.239 87.7614 180 85 180C82.2386 180 80 182.239 80 185C80 187.761 82.2386 190 85 190Z" fill="#727577"/>
<path d="M105 190C107.761 190 110 187.761 110 185C110 182.239 107.761 180 105 180C102.239 180 100 182.239 100 185C100 187.761 102.239 190 105 190Z" fill="#727577"/>
<path d="M125 190C127.761 190 130 187.761 130 185C130 182.239 127.761 180 125 180C122.239 180 120 182.239 120 185C120 187.761 122.239 190 125 190Z" fill="#727577"/>
<path d="M145 190C147.761 190 150 187.761 150 185C150 182.239 147.761 180 145 180C142.239 180 140 182.239 140 185C140 187.761 142.239 190 145 190Z" fill="#727577"/>
<path d="M165 190C167.761 190 170 187.761 170 185C170 182.239 167.761 180 165 180C162.239 180 160 182.239 160 185C160 187.761 162.239 190 165 190Z" fill="#727577"/>
<path d="M185 190C187.761 190 190 187.761 190 185C190 182.239 187.761 180 185 180C182.239 180 180 182.239 180 185C180 187.761 182.239 190 185 190Z" fill="#727577"/>
<path d="M205 190C207.761 190 210 187.761 210 185C210 182.239 207.761 180 205 180C202.239 180 200 182.239 200 185C200 187.761 202.239 190 205 190Z" fill="#727577"/>
<path d="M225 190C227.761 190 230 187.761 230 185C230 182.239 227.761 180 225 180C222.239 180 220 182.239 220 185C220 187.761 222.239 190 225 190Z" fill="#727577"/>
<path d="M5 210C7.76142 210 10 207.761 10 205C10 202.239 7.76142 200 5 200C2.23858 200 0 202.239 0 205C0 207.761 2.23858 210 5 210Z" fill="#727577"/>
<path d="M25 210C27.7614 210 30 207.761 30 205C30 202.239 27.7614 200 25 200C22.2386 200 20 202.239 20 205C20 207.761 22.2386 210 25 210Z" fill="#727577"/>
<path d="M45 210C47.7614 210 50 207.761 50 205C50 202.239 47.7614 200 45 200C42.2386 200 40 202.239 40 205C40 207.761 42.2386 210 45 210Z" fill="#727577"/>
<path d="M65 210C67.7614 210 70 207.761 70 205C70 202.239 67.7614 200 65 200C62.2386 200 60 202.239 60 205C60 207.761 62.2386 210 65 210Z" fill="#727577"/>
<path d="M85 210C87.7614 210 90 207.761 90 205C90 202.239 87.7614 200 85 200C82.2386 200 80 202.239 80 205C80 207.761 82.2386 210 85 210Z" fill="#727577"/>
<path d="M105 210C107.761 210 110 207.761 110 205C110 202.239 107.761 200 105 200C102.239 200 100 202.239 100 205C100 207.761 102.239 210 105 210Z" fill="#727577"/>
<path d="M125 210C127.761 210 130 207.761 130 205C130 202.239 127.761 200 125 200C122.239 200 120 202.239 120 205C120 207.761 122.239 210 125 210Z" fill="#727577"/>
<path d="M145 210C147.761 210 150 207.761 150 205C150 202.239 147.761 200 145 200C142.239 200 140 202.239 140 205C140 207.761 142.239 210 145 210Z" fill="#727577"/>
<path d="M165 210C167.761 210 170 207.761 170 205C170 202.239 167.761 200 165 200C162.239 200 160 202.239 160 205C160 207.761 162.239 210 165 210Z" fill="#727577"/>
<path d="M185 210C187.761 210 190 207.761 190 205C190 202.239 187.761 200 185 200C182.239 200 180 202.239 180 205C180 207.761 182.239 210 185 210Z" fill="#727577"/>
<path d="M205 210C207.761 210 210 207.761 210 205C210 202.239 207.761 200 205 200C202.239 200 200 202.239 200 205C200 207.761 202.239 210 205 210Z" fill="#727577"/>
<path d="M225 210C227.761 210 230 207.761 230 205C230 202.239 227.761 200 225 200C222.239 200 220 202.239 220 205C220 207.761 222.239 210 225 210Z" fill="#727577"/>
<path d="M5 230C7.76142 230 10 227.761 10 225C10 222.239 7.76142 220 5 220C2.23858 220 0 222.239 0 225C0 227.761 2.23858 230 5 230Z" fill="#727577"/>
<path d="M25 230C27.7614 230 30 227.761 30 225C30 222.239 27.7614 220 25 220C22.2386 220 20 222.239 20 225C20 227.761 22.2386 230 25 230Z" fill="#727577"/>
<path d="M45 230C47.7614 230 50 227.761 50 225C50 222.239 47.7614 220 45 220C42.2386 220 40 222.239 40 225C40 227.761 42.2386 230 45 230Z" fill="#727577"/>
<path d="M65 230C67.7614 230 70 227.761 70 225C70 222.239 67.7614 220 65 220C62.2386 220 60 222.239 60 225C60 227.761 62.2386 230 65 230Z" fill="#727577"/>
<path d="M85 230C87.7614 230 90 227.761 90 225C90 222.239 87.7614 220 85 220C82.2386 220 80 222.239 80 225C80 227.761 82.2386 230 85 230Z" fill="#727577"/>
<path d="M105 230C107.761 230 110 227.761 110 225C110 222.239 107.761 220 105 220C102.239 220 100 222.239 100 225C100 227.761 102.239 230 105 230Z" fill="#727577"/>
<path d="M125 230C127.761 230 130 227.761 130 225C130 222.239 127.761 220 125 220C122.239 220 120 222.239 120 225C120 227.761 122.239 230 125 230Z" fill="#727577"/>
<path d="M145 230C147.761 230 150 227.761 150 225C150 222.239 147.761 220 145 220C142.239 220 140 222.239 140 225C140 227.761 142.239 230 145 230Z" fill="#727577"/>
<path d="M165 230C167.761 230 170 227.761 170 225C170 222.239 167.761 220 165 220C162.239 220 160 222.239 160 225C160 227.761 162.239 230 165 230Z" fill="#727577"/>
<path d="M185 230C187.761 230 190 227.761 190 225C190 222.239 187.761 220 185 220C182.239 220 180 222.239 180 225C180 227.761 182.239 230 185 230Z" fill="#727577"/>
<path d="M205 230C207.761 230 210 227.761 210 225C210 222.239 207.761 220 205 220C202.239 220 200 222.239 200 225C200 227.761 202.239 230 205 230Z" fill="#727577"/>
<path d="M225 230C227.761 230 230 227.761 230 225C230 222.239 227.761 220 225 220C222.239 220 220 222.239 220 225C220 227.761 222.239 230 225 230Z" fill="#727577"/>
</g>
<defs>
<clipPath id="clip0_1108_523">
<rect width="230" height="230" fill="white"/>
</clipPath>
</defs>
</svg>
