<svg width="309" height="110" viewBox="0 0 309 110" fill="none" xmlns="http://www.w3.org/2000/svg">
<g clip-path="url(#clip0_1085_13)">
<path d="M5 10C7.76142 10 10 7.76142 10 5C10 2.23858 7.76142 0 5 0C2.23858 0 0 2.23858 0 5C0 7.76142 2.23858 10 5 10Z" fill="#727577"/>
<path d="M28 10C30.7614 10 33 7.76142 33 5C33 2.23858 30.7614 0 28 0C25.2386 0 23 2.23858 23 5C23 7.76142 25.2386 10 28 10Z" fill="#727577"/>
<path d="M51 10C53.7614 10 56 7.76142 56 5C56 2.23858 53.7614 0 51 0C48.2386 0 46 2.23858 46 5C46 7.76142 48.2386 10 51 10Z" fill="#727577"/>
<path d="M74 10C76.7614 10 79 7.76142 79 5C79 2.23858 76.7614 0 74 0C71.2386 0 69 2.23858 69 5C69 7.76142 71.2386 10 74 10Z" fill="#727577"/>
<path d="M97 10C99.7614 10 102 7.76142 102 5C102 2.23858 99.7614 0 97 0C94.2386 0 92 2.23858 92 5C92 7.76142 94.2386 10 97 10Z" fill="#727577"/>
<path d="M120 10C122.761 10 125 7.76142 125 5C125 2.23858 122.761 0 120 0C117.239 0 115 2.23858 115 5C115 7.76142 117.239 10 120 10Z" fill="#727577"/>
<path d="M143 10C145.761 10 148 7.76142 148 5C148 2.23858 145.761 0 143 0C140.239 0 138 2.23858 138 5C138 7.76142 140.239 10 143 10Z" fill="#727577"/>
<path d="M166 10C168.761 10 171 7.76142 171 5C171 2.23858 168.761 0 166 0C163.239 0 161 2.23858 161 5C161 7.76142 163.239 10 166 10Z" fill="#727577"/>
<path d="M189 10C191.761 10 194 7.76142 194 5C194 2.23858 191.761 0 189 0C186.239 0 184 2.23858 184 5C184 7.76142 186.239 10 189 10Z" fill="#727577"/>
<path d="M212 10C214.761 10 217 7.76142 217 5C217 2.23858 214.761 0 212 0C209.239 0 207 2.23858 207 5C207 7.76142 209.239 10 212 10Z" fill="#727577"/>
<path d="M235 10C237.761 10 240 7.76142 240 5C240 2.23858 237.761 0 235 0C232.239 0 230 2.23858 230 5C230 7.76142 232.239 10 235 10Z" fill="#727577"/>
<path d="M258 10C260.761 10 263 7.76142 263 5C263 2.23858 260.761 0 258 0C255.239 0 253 2.23858 253 5C253 7.76142 255.239 10 258 10Z" fill="#727577"/>
<path d="M281 10C283.761 10 286 7.76142 286 5C286 2.23858 283.761 0 281 0C278.239 0 276 2.23858 276 5C276 7.76142 278.239 10 281 10Z" fill="#727577"/>
<path d="M304 10C306.761 10 309 7.76142 309 5C309 2.23858 306.761 0 304 0C301.239 0 299 2.23858 299 5C299 7.76142 301.239 10 304 10Z" fill="#727577"/>
<path d="M5 30C7.76142 30 10 27.7614 10 25C10 22.2386 7.76142 20 5 20C2.23858 20 0 22.2386 0 25C0 27.7614 2.23858 30 5 30Z" fill="#727577"/>
<path d="M28 30C30.7614 30 33 27.7614 33 25C33 22.2386 30.7614 20 28 20C25.2386 20 23 22.2386 23 25C23 27.7614 25.2386 30 28 30Z" fill="#727577"/>
<path d="M51 30C53.7614 30 56 27.7614 56 25C56 22.2386 53.7614 20 51 20C48.2386 20 46 22.2386 46 25C46 27.7614 48.2386 30 51 30Z" fill="#727577"/>
<path d="M74 30C76.7614 30 79 27.7614 79 25C79 22.2386 76.7614 20 74 20C71.2386 20 69 22.2386 69 25C69 27.7614 71.2386 30 74 30Z" fill="#727577"/>
<path d="M97 30C99.7614 30 102 27.7614 102 25C102 22.2386 99.7614 20 97 20C94.2386 20 92 22.2386 92 25C92 27.7614 94.2386 30 97 30Z" fill="#727577"/>
<path d="M120 30C122.761 30 125 27.7614 125 25C125 22.2386 122.761 20 120 20C117.239 20 115 22.2386 115 25C115 27.7614 117.239 30 120 30Z" fill="#727577"/>
<path d="M143 30C145.761 30 148 27.7614 148 25C148 22.2386 145.761 20 143 20C140.239 20 138 22.2386 138 25C138 27.7614 140.239 30 143 30Z" fill="#727577"/>
<path d="M166 30C168.761 30 171 27.7614 171 25C171 22.2386 168.761 20 166 20C163.239 20 161 22.2386 161 25C161 27.7614 163.239 30 166 30Z" fill="#727577"/>
<path d="M189 30C191.761 30 194 27.7614 194 25C194 22.2386 191.761 20 189 20C186.239 20 184 22.2386 184 25C184 27.7614 186.239 30 189 30Z" fill="#727577"/>
<path d="M212 30C214.761 30 217 27.7614 217 25C217 22.2386 214.761 20 212 20C209.239 20 207 22.2386 207 25C207 27.7614 209.239 30 212 30Z" fill="#727577"/>
<path d="M235 30C237.761 30 240 27.7614 240 25C240 22.2386 237.761 20 235 20C232.239 20 230 22.2386 230 25C230 27.7614 232.239 30 235 30Z" fill="#727577"/>
<path d="M258 30C260.761 30 263 27.7614 263 25C263 22.2386 260.761 20 258 20C255.239 20 253 22.2386 253 25C253 27.7614 255.239 30 258 30Z" fill="#727577"/>
<path d="M281 30C283.761 30 286 27.7614 286 25C286 22.2386 283.761 20 281 20C278.239 20 276 22.2386 276 25C276 27.7614 278.239 30 281 30Z" fill="#727577"/>
<path d="M304 30C306.761 30 309 27.7614 309 25C309 22.2386 306.761 20 304 20C301.239 20 299 22.2386 299 25C299 27.7614 301.239 30 304 30Z" fill="#727577"/>
<path d="M5 50C7.76142 50 10 47.7614 10 45C10 42.2386 7.76142 40 5 40C2.23858 40 0 42.2386 0 45C0 47.7614 2.23858 50 5 50Z" fill="#727577"/>
<path d="M28 50C30.7614 50 33 47.7614 33 45C33 42.2386 30.7614 40 28 40C25.2386 40 23 42.2386 23 45C23 47.7614 25.2386 50 28 50Z" fill="#727577"/>
<path d="M51 50C53.7614 50 56 47.7614 56 45C56 42.2386 53.7614 40 51 40C48.2386 40 46 42.2386 46 45C46 47.7614 48.2386 50 51 50Z" fill="#727577"/>
<path d="M74 50C76.7614 50 79 47.7614 79 45C79 42.2386 76.7614 40 74 40C71.2386 40 69 42.2386 69 45C69 47.7614 71.2386 50 74 50Z" fill="#727577"/>
<path d="M97 50C99.7614 50 102 47.7614 102 45C102 42.2386 99.7614 40 97 40C94.2386 40 92 42.2386 92 45C92 47.7614 94.2386 50 97 50Z" fill="#727577"/>
<path d="M120 50C122.761 50 125 47.7614 125 45C125 42.2386 122.761 40 120 40C117.239 40 115 42.2386 115 45C115 47.7614 117.239 50 120 50Z" fill="#727577"/>
<path d="M143 50C145.761 50 148 47.7614 148 45C148 42.2386 145.761 40 143 40C140.239 40 138 42.2386 138 45C138 47.7614 140.239 50 143 50Z" fill="#727577"/>
<path d="M166 50C168.761 50 171 47.7614 171 45C171 42.2386 168.761 40 166 40C163.239 40 161 42.2386 161 45C161 47.7614 163.239 50 166 50Z" fill="#727577"/>
<path d="M189 50C191.761 50 194 47.7614 194 45C194 42.2386 191.761 40 189 40C186.239 40 184 42.2386 184 45C184 47.7614 186.239 50 189 50Z" fill="#727577"/>
<path d="M212 50C214.761 50 217 47.7614 217 45C217 42.2386 214.761 40 212 40C209.239 40 207 42.2386 207 45C207 47.7614 209.239 50 212 50Z" fill="#727577"/>
<path d="M235 50C237.761 50 240 47.7614 240 45C240 42.2386 237.761 40 235 40C232.239 40 230 42.2386 230 45C230 47.7614 232.239 50 235 50Z" fill="#727577"/>
<path d="M258 50C260.761 50 263 47.7614 263 45C263 42.2386 260.761 40 258 40C255.239 40 253 42.2386 253 45C253 47.7614 255.239 50 258 50Z" fill="#727577"/>
<path d="M281 50C283.761 50 286 47.7614 286 45C286 42.2386 283.761 40 281 40C278.239 40 276 42.2386 276 45C276 47.7614 278.239 50 281 50Z" fill="#727577"/>
<path d="M304 50C306.761 50 309 47.7614 309 45C309 42.2386 306.761 40 304 40C301.239 40 299 42.2386 299 45C299 47.7614 301.239 50 304 50Z" fill="#727577"/>
<path d="M5 70C7.76142 70 10 67.7614 10 65C10 62.2386 7.76142 60 5 60C2.23858 60 0 62.2386 0 65C0 67.7614 2.23858 70 5 70Z" fill="#727577"/>
<path d="M28 70C30.7614 70 33 67.7614 33 65C33 62.2386 30.7614 60 28 60C25.2386 60 23 62.2386 23 65C23 67.7614 25.2386 70 28 70Z" fill="#727577"/>
<path d="M51 70C53.7614 70 56 67.7614 56 65C56 62.2386 53.7614 60 51 60C48.2386 60 46 62.2386 46 65C46 67.7614 48.2386 70 51 70Z" fill="#727577"/>
<path d="M74 70C76.7614 70 79 67.7614 79 65C79 62.2386 76.7614 60 74 60C71.2386 60 69 62.2386 69 65C69 67.7614 71.2386 70 74 70Z" fill="#727577"/>
<path d="M97 70C99.7614 70 102 67.7614 102 65C102 62.2386 99.7614 60 97 60C94.2386 60 92 62.2386 92 65C92 67.7614 94.2386 70 97 70Z" fill="#727577"/>
<path d="M120 70C122.761 70 125 67.7614 125 65C125 62.2386 122.761 60 120 60C117.239 60 115 62.2386 115 65C115 67.7614 117.239 70 120 70Z" fill="#727577"/>
<path d="M143 70C145.761 70 148 67.7614 148 65C148 62.2386 145.761 60 143 60C140.239 60 138 62.2386 138 65C138 67.7614 140.239 70 143 70Z" fill="#727577"/>
<path d="M166 70C168.761 70 171 67.7614 171 65C171 62.2386 168.761 60 166 60C163.239 60 161 62.2386 161 65C161 67.7614 163.239 70 166 70Z" fill="#727577"/>
<path d="M189 70C191.761 70 194 67.7614 194 65C194 62.2386 191.761 60 189 60C186.239 60 184 62.2386 184 65C184 67.7614 186.239 70 189 70Z" fill="#727577"/>
<path d="M212 70C214.761 70 217 67.7614 217 65C217 62.2386 214.761 60 212 60C209.239 60 207 62.2386 207 65C207 67.7614 209.239 70 212 70Z" fill="#727577"/>
<path d="M235 70C237.761 70 240 67.7614 240 65C240 62.2386 237.761 60 235 60C232.239 60 230 62.2386 230 65C230 67.7614 232.239 70 235 70Z" fill="#727577"/>
<path d="M258 70C260.761 70 263 67.7614 263 65C263 62.2386 260.761 60 258 60C255.239 60 253 62.2386 253 65C253 67.7614 255.239 70 258 70Z" fill="#727577"/>
<path d="M281 70C283.761 70 286 67.7614 286 65C286 62.2386 283.761 60 281 60C278.239 60 276 62.2386 276 65C276 67.7614 278.239 70 281 70Z" fill="#727577"/>
<path d="M304 70C306.761 70 309 67.7614 309 65C309 62.2386 306.761 60 304 60C301.239 60 299 62.2386 299 65C299 67.7614 301.239 70 304 70Z" fill="#727577"/>
<path d="M5 90C7.76142 90 10 87.7614 10 85C10 82.2386 7.76142 80 5 80C2.23858 80 0 82.2386 0 85C0 87.7614 2.23858 90 5 90Z" fill="#727577"/>
<path d="M28 90C30.7614 90 33 87.7614 33 85C33 82.2386 30.7614 80 28 80C25.2386 80 23 82.2386 23 85C23 87.7614 25.2386 90 28 90Z" fill="#727577"/>
<path d="M51 90C53.7614 90 56 87.7614 56 85C56 82.2386 53.7614 80 51 80C48.2386 80 46 82.2386 46 85C46 87.7614 48.2386 90 51 90Z" fill="#727577"/>
<path d="M74 90C76.7614 90 79 87.7614 79 85C79 82.2386 76.7614 80 74 80C71.2386 80 69 82.2386 69 85C69 87.7614 71.2386 90 74 90Z" fill="#727577"/>
<path d="M97 90C99.7614 90 102 87.7614 102 85C102 82.2386 99.7614 80 97 80C94.2386 80 92 82.2386 92 85C92 87.7614 94.2386 90 97 90Z" fill="#727577"/>
<path d="M120 90C122.761 90 125 87.7614 125 85C125 82.2386 122.761 80 120 80C117.239 80 115 82.2386 115 85C115 87.7614 117.239 90 120 90Z" fill="#727577"/>
<path d="M143 90C145.761 90 148 87.7614 148 85C148 82.2386 145.761 80 143 80C140.239 80 138 82.2386 138 85C138 87.7614 140.239 90 143 90Z" fill="#727577"/>
<path d="M166 90C168.761 90 171 87.7614 171 85C171 82.2386 168.761 80 166 80C163.239 80 161 82.2386 161 85C161 87.7614 163.239 90 166 90Z" fill="#727577"/>
<path d="M189 90C191.761 90 194 87.7614 194 85C194 82.2386 191.761 80 189 80C186.239 80 184 82.2386 184 85C184 87.7614 186.239 90 189 90Z" fill="#727577"/>
<path d="M212 90C214.761 90 217 87.7614 217 85C217 82.2386 214.761 80 212 80C209.239 80 207 82.2386 207 85C207 87.7614 209.239 90 212 90Z" fill="#727577"/>
<path d="M235 90C237.761 90 240 87.7614 240 85C240 82.2386 237.761 80 235 80C232.239 80 230 82.2386 230 85C230 87.7614 232.239 90 235 90Z" fill="#727577"/>
<path d="M258 90C260.761 90 263 87.7614 263 85C263 82.2386 260.761 80 258 80C255.239 80 253 82.2386 253 85C253 87.7614 255.239 90 258 90Z" fill="#727577"/>
<path d="M281 90C283.761 90 286 87.7614 286 85C286 82.2386 283.761 80 281 80C278.239 80 276 82.2386 276 85C276 87.7614 278.239 90 281 90Z" fill="#727577"/>
<path d="M304 90C306.761 90 309 87.7614 309 85C309 82.2386 306.761 80 304 80C301.239 80 299 82.2386 299 85C299 87.7614 301.239 90 304 90Z" fill="#727577"/>
<path d="M5 110C7.76142 110 10 107.761 10 105C10 102.239 7.76142 100 5 100C2.23858 100 0 102.239 0 105C0 107.761 2.23858 110 5 110Z" fill="#727577"/>
<path d="M28 110C30.7614 110 33 107.761 33 105C33 102.239 30.7614 100 28 100C25.2386 100 23 102.239 23 105C23 107.761 25.2386 110 28 110Z" fill="#727577"/>
<path d="M51 110C53.7614 110 56 107.761 56 105C56 102.239 53.7614 100 51 100C48.2386 100 46 102.239 46 105C46 107.761 48.2386 110 51 110Z" fill="#727577"/>
<path d="M74 110C76.7614 110 79 107.761 79 105C79 102.239 76.7614 100 74 100C71.2386 100 69 102.239 69 105C69 107.761 71.2386 110 74 110Z" fill="#727577"/>
<path d="M97 110C99.7614 110 102 107.761 102 105C102 102.239 99.7614 100 97 100C94.2386 100 92 102.239 92 105C92 107.761 94.2386 110 97 110Z" fill="#727577"/>
<path d="M120 110C122.761 110 125 107.761 125 105C125 102.239 122.761 100 120 100C117.239 100 115 102.239 115 105C115 107.761 117.239 110 120 110Z" fill="#727577"/>
<path d="M143 110C145.761 110 148 107.761 148 105C148 102.239 145.761 100 143 100C140.239 100 138 102.239 138 105C138 107.761 140.239 110 143 110Z" fill="#727577"/>
<path d="M166 110C168.761 110 171 107.761 171 105C171 102.239 168.761 100 166 100C163.239 100 161 102.239 161 105C161 107.761 163.239 110 166 110Z" fill="#727577"/>
<path d="M189 110C191.761 110 194 107.761 194 105C194 102.239 191.761 100 189 100C186.239 100 184 102.239 184 105C184 107.761 186.239 110 189 110Z" fill="#727577"/>
<path d="M212 110C214.761 110 217 107.761 217 105C217 102.239 214.761 100 212 100C209.239 100 207 102.239 207 105C207 107.761 209.239 110 212 110Z" fill="#727577"/>
<path d="M235 110C237.761 110 240 107.761 240 105C240 102.239 237.761 100 235 100C232.239 100 230 102.239 230 105C230 107.761 232.239 110 235 110Z" fill="#727577"/>
<path d="M258 110C260.761 110 263 107.761 263 105C263 102.239 260.761 100 258 100C255.239 100 253 102.239 253 105C253 107.761 255.239 110 258 110Z" fill="#727577"/>
<path d="M281 110C283.761 110 286 107.761 286 105C286 102.239 283.761 100 281 100C278.239 100 276 102.239 276 105C276 107.761 278.239 110 281 110Z" fill="#727577"/>
<path d="M304 110C306.761 110 309 107.761 309 105C309 102.239 306.761 100 304 100C301.239 100 299 102.239 299 105C299 107.761 301.239 110 304 110Z" fill="#727577"/>
</g>
<defs>
<clipPath id="clip0_1085_13">
<rect width="309" height="110" fill="white"/>
</clipPath>
</defs>
</svg>
