<svg width="60" height="60" viewBox="0 0 60 60" fill="none" xmlns="http://www.w3.org/2000/svg">
<path d="M40.1333 42L31.7333 33.6C31.0667 34.1333 30.3 34.5556 29.4333 34.8667C28.5667 35.1778 27.6444 35.3333 26.6667 35.3333C24.2444 35.3333 22.1944 34.4944 20.5167 32.8167C18.8389 31.1389 18 29.0889 18 26.6667C18 24.2444 18.8389 22.1944 20.5167 20.5167C22.1944 18.8389 24.2444 18 26.6667 18C29.0889 18 31.1389 18.8389 32.8167 20.5167C34.4944 22.1944 35.3333 24.2444 35.3333 26.6667C35.3333 27.6444 35.1778 28.5667 34.8667 29.4333C34.5556 30.3 34.1333 31.0667 33.6 31.7333L42 40.1333L40.1333 42ZM26.6667 32.6667C28.3333 32.6667 29.75 32.0833 30.9167 30.9167C32.0833 29.75 32.6667 28.3333 32.6667 26.6667C32.6667 25 32.0833 23.5833 30.9167 22.4167C29.75 21.25 28.3333 20.6667 26.6667 20.6667C25 20.6667 23.5833 21.25 22.4167 22.4167C21.25 23.5833 20.6667 25 20.6667 26.6667C20.6667 28.3333 21.25 29.75 22.4167 30.9167C23.5833 32.0833 25 32.6667 26.6667 32.6667Z" fill="black"/>
</svg>
