<svg width="60" height="60" viewBox="0 0 60 60" fill="none" xmlns="http://www.w3.org/2000/svg">
<path d="M18.0131 22.0001C17.8808 21.9982 17.7493 22.0227 17.6265 22.0721C17.5037 22.1215 17.3919 22.1949 17.2976 22.2879C17.2033 22.381 17.1285 22.4919 17.0774 22.6141C17.0263 22.7364 17 22.8676 17 23.0001C17 23.1326 17.0263 23.2638 17.0774 23.3861C17.1285 23.5083 17.2033 23.6192 17.2976 23.7122C17.3919 23.8053 17.5037 23.8786 17.6265 23.9281C17.7493 23.9775 17.8808 24.0019 18.0131 24.0001H41.9869C42.1192 24.0019 42.2507 23.9775 42.3735 23.9281C42.4963 23.8786 42.6081 23.8053 42.7024 23.7122C42.7967 23.6192 42.8715 23.5083 42.9226 23.3861C42.9737 23.2638 43 23.1326 43 23.0001C43 22.8676 42.9737 22.7364 42.9226 22.6141C42.8715 22.4919 42.7967 22.381 42.7024 22.2879C42.6081 22.1949 42.4963 22.1215 42.3735 22.0721C42.2507 22.0227 42.1192 21.9982 41.9869 22.0001H18.0131ZM18.0131 29C17.8808 28.9981 17.7493 29.0226 17.6265 29.072C17.5037 29.1214 17.3919 29.1948 17.2976 29.2878C17.2033 29.3809 17.1285 29.4918 17.0774 29.614C17.0263 29.7363 17 29.8675 17 30C17 30.1325 17.0263 30.2637 17.0774 30.386C17.1285 30.5082 17.2033 30.6191 17.2976 30.7122C17.3919 30.8052 17.5037 30.8786 17.6265 30.928C17.7493 30.9774 17.8808 31.0019 18.0131 31H41.9869C42.1192 31.0019 42.2507 30.9774 42.3735 30.928C42.4963 30.8786 42.6081 30.8052 42.7024 30.7122C42.7967 30.6191 42.8715 30.5082 42.9226 30.386C42.9737 30.2637 43 30.1325 43 30C43 29.8675 42.9737 29.7363 42.9226 29.614C42.8715 29.4918 42.7967 29.3809 42.7024 29.2878C42.6081 29.1948 42.4963 29.1214 42.3735 29.072C42.2507 29.0226 42.1192 28.9981 41.9869 29H18.0131ZM18.0131 35.9999C17.8808 35.9981 17.7493 36.0225 17.6265 36.0719C17.5037 36.1214 17.3919 36.1947 17.2976 36.2878C17.2033 36.3808 17.1285 36.4917 17.0774 36.6139C17.0263 36.7362 17 36.8674 17 36.9999C17 37.1324 17.0263 37.2636 17.0774 37.3859C17.1285 37.5081 17.2033 37.619 17.2976 37.7121C17.3919 37.8051 17.5037 37.8785 17.6265 37.9279C17.7493 37.9773 17.8808 38.0018 18.0131 37.9999H41.9869C42.1192 38.0018 42.2507 37.9773 42.3735 37.9279C42.4963 37.8785 42.6081 37.8051 42.7024 37.7121C42.7967 37.619 42.8715 37.5081 42.9226 37.3859C42.9737 37.2636 43 37.1324 43 36.9999C43 36.8674 42.9737 36.7362 42.9226 36.6139C42.8715 36.4917 42.7967 36.3808 42.7024 36.2878C42.6081 36.1947 42.4963 36.1214 42.3735 36.0719C42.2507 36.0225 42.1192 35.9981 41.9869 35.9999H18.0131Z" fill="black"/>
</svg>
